<?xml version="1.0" encoding="utf-8"?>
<!-- Generator: Adobe Illustrator 15.1.0, SVG Export Plug-In . SVG Version: 6.00 Build 0)  -->
<!DOCTYPE svg PUBLIC "-//W3C//DTD SVG 1.1//EN" "http://www.w3.org/Graphics/SVG/1.1/DTD/svg11.dtd">
<svg version="1.1" id="Layer_1" xmlns="http://www.w3.org/2000/svg" xmlns:xlink="http://www.w3.org/1999/xlink" x="0px" y="0px"
	 width="792px" height="612px" viewBox="0 0 792 612" enable-background="new 0 0 792 612" xml:space="preserve">
<g>
	<rect x="514.667" y="151.311" width="237.333" height="309.379"/>
	<g>
		<g>
			<g>
				<path d="M109.006,364.288c0.641-0.639,1.394-0.899,2.843-0.899h5.834c1.623,0,2.58,0.287,3.163,0.899
					c0.726,0.723,0.958,1.566,0.958,4.265v10.794h-4.441v-1.826c-1.914,1.565-2.61,1.855-4.032,1.855h-2.178
					c-1.42,0-2.176-0.176-2.813-0.811c-0.552-0.554-0.928-1.48-0.928-3.57c0-1.973,0.29-3.191,0.987-3.889
					c0.724-0.726,1.652-1.076,4.523-1.076c1.539,0,3.136,0.178,4.44,0.467v-1.422c0-1.568-0.086-1.887-0.289-2.117
					c-0.205-0.178-0.494-0.235-1.16-0.235h-2.234c-0.61,0-0.931,0.058-1.104,0.235c-0.23,0.23-0.262,0.549-0.32,1.508h-4.203
					C108.077,365.798,108.339,364.925,109.006,364.288z M117.362,375.37v-2.668h-2.929c-1.686,0-2.09,0.115-2.381,0.404
					c-0.289,0.292-0.348,0.641-0.348,1.365c0,0.813,0.059,1.248,0.289,1.48c0.233,0.231,0.553,0.26,1.133,0.26h1.248
					C115.304,376.212,115.913,376.126,117.362,375.37z"/>
				<path d="M133.782,379.347v-2.06c-2.003,1.742-2.7,2.089-4.009,2.089h-1.682c-1.684,0-2.58-0.29-3.277-0.984
					c-0.956-0.959-1.336-2.354-1.336-7.025c0-4.7,0.462-6.033,1.453-7.023c0.696-0.693,1.623-0.982,3.219-0.982h1.74
					c1.335,0,2.062,0.289,3.892,1.826v-7.253h4.439v21.413H133.782z M133.782,375.14v-7.601c-0.933-0.436-1.599-0.641-2.323-0.641
					h-1.596c-0.812,0-1.191,0.118-1.452,0.378c-0.405,0.377-0.521,1.046-0.521,4.09c0,3.047,0.115,3.688,0.521,4.095
					c0.261,0.259,0.64,0.348,1.452,0.348h1.449C132.068,375.809,132.793,375.604,133.782,375.14z"/>
				<path d="M141.493,364.288c0.639-0.639,1.393-0.899,2.843-0.899h5.833c1.624,0,2.582,0.287,3.163,0.899
					c0.726,0.723,0.958,1.566,0.958,4.265v10.794h-4.44v-1.826c-1.915,1.565-2.611,1.855-4.033,1.855h-2.174
					c-1.425,0-2.181-0.176-2.816-0.811c-0.553-0.554-0.931-1.48-0.931-3.57c0-1.973,0.291-3.191,0.987-3.889
					c0.726-0.726,1.653-1.076,4.527-1.076c1.538,0,3.135,0.178,4.439,0.467v-1.422c0-1.568-0.088-1.887-0.289-2.117
					c-0.203-0.178-0.496-0.235-1.162-0.235h-2.232c-0.611,0-0.93,0.058-1.104,0.235c-0.232,0.23-0.261,0.549-0.32,1.508h-4.208
					C140.564,365.798,140.826,364.925,141.493,364.288z M149.85,375.37v-2.668h-2.93c-1.684,0-2.09,0.115-2.38,0.404
					c-0.289,0.292-0.348,0.641-0.348,1.365c0,0.813,0.059,1.248,0.29,1.48c0.232,0.231,0.55,0.26,1.131,0.26h1.246
					C147.789,376.212,148.398,376.126,149.85,375.37z"/>
				<path d="M155.964,379.347v-16.713c0-2.002,0.264-3.048,0.931-3.715c0.667-0.666,1.421-0.985,3.133-0.985h3.657v3.364h-2.15
					c-0.579,0-0.754,0.059-0.926,0.205c-0.147,0.173-0.205,0.49-0.205,1.276v0.639h3.281v3.452h-3.252v12.477H155.964z"/>
				<path d="M165.359,379.347v-15.958h4.438v2.437c1.656-1.713,2.497-2.465,3.773-2.465h1.712v4.38h-2.061
					c-1.219,0-2.147,0.115-3.425,0.638v10.969H165.359z"/>
				<path d="M191.319,363.389v15.958h-4.468v-2.116c-2.03,1.827-2.697,2.146-4.149,2.146h-1.943c-1.395,0-2.266-0.29-2.872-0.9
					c-0.64-0.666-0.929-1.508-0.929-3.829v-11.258h4.469v10.765c0,0.665,0.085,1.045,0.347,1.308
					c0.262,0.259,0.522,0.348,1.307,0.348h1.277c0.753,0,1.421-0.175,2.494-0.64v-11.78H191.319z"/>
				<path d="M197.356,361.183h-4.381v-3.249h4.381V361.183z M197.356,379.347h-4.381v-15.958h4.381V379.347z"/>
				<path d="M206.779,375.837h-1.914c-0.729,0-1.017-0.059-1.16-0.175c-0.146-0.174-0.205-0.404-0.205-1.104v-7.688h3.279v-3.481
					H203.5v-2.206h-4.468v2.206v3.481v8.881c0,1.623,0.203,2.348,0.728,2.871c0.55,0.551,1.36,0.869,2.872,0.869
					c1.188,0,2.379-0.174,3.074-0.348l1.073-0.278V375.837z"/>
			</g>
		</g>
		<path d="M187.294,332.261c-0.15-0.942-0.659-1.209-1.89-1.604c-0.934-0.299-7.196-2.294-7.196-2.294s-4.363-1.648-7.599,0.684
			c-0.437,0.314-0.886,0.671-1.34,1.053c0.381-0.453,0.737-0.905,1.051-1.342c2.325-3.238,0.669-7.6,0.669-7.6
			s-2.006-6.258-2.306-7.192c-0.398-1.229-0.667-1.739-1.607-1.886c-0.939-0.148-1.352,0.254-2.106,1.301
			c-0.574,0.797-4.407,6.136-4.407,6.136s-2.914,3.642-1.697,7.438c0.163,0.511,0.364,1.05,0.588,1.6
			c-0.314-0.504-0.634-0.982-0.952-1.414c-2.361-3.211-7.021-2.985-7.021-2.985s-6.57-0.026-7.553-0.028
			c-1.293-0.004-1.86,0.096-2.291,0.943c-0.433,0.85-0.176,1.365,0.587,2.406c0.58,0.793,4.474,6.088,4.474,6.088
			s2.562,3.896,6.55,3.913c0.535,0.002,1.109-0.021,1.699-0.063c-0.574,0.143-1.127,0.299-1.635,0.467
			c-3.786,1.255-5.01,5.754-5.01,5.754s-2.056,6.242-2.361,7.176c-0.401,1.229-0.483,1.798,0.19,2.471
			c0.674,0.672,1.243,0.59,2.47,0.186c0.934-0.307,7.172-2.373,7.172-2.373s4.498-1.233,5.744-5.021
			c0.168-0.509,0.322-1.06,0.466-1.634c-0.041,0.59-0.065,1.162-0.061,1.698c0.023,3.987,3.924,6.542,3.924,6.542
			s5.301,3.883,6.095,4.463c1.044,0.76,1.561,1.014,2.408,0.581c0.849-0.433,0.945-0.999,0.939-2.292
			c-0.002-0.981-0.041-7.553-0.041-7.553s0.219-4.658-2.998-7.016c-0.432-0.316-0.908-0.635-1.413-0.947
			c0.551,0.221,1.088,0.42,1.599,0.582c3.799,1.211,7.434-1.71,7.434-1.71s5.333-3.841,6.128-4.417
			C187.043,333.612,187.443,333.2,187.294,332.261z M164.661,327.421c0.717,0.113,1.072,1.638,0.794,3.405
			c-0.277,1.767-1.084,3.108-1.801,2.996c-0.718-0.113-1.074-1.638-0.795-3.405S163.944,327.308,164.661,327.421z M155.482,332.108
			c0.329-0.646,1.888-0.514,3.482,0.297c1.596,0.811,2.622,1.993,2.293,2.639c-0.329,0.648-1.888,0.515-3.483-0.295
			C156.179,333.938,155.153,332.755,155.482,332.108z M160.321,340.923c-1.264,1.266-2.705,1.878-3.219,1.365
			c-0.513-0.513,0.096-1.955,1.359-3.222c1.265-1.267,2.705-1.878,3.219-1.365S161.585,339.657,160.321,340.923z M167.285,343.891
			c-0.646,0.331-1.83-0.694-2.644-2.288c-0.813-1.593-0.95-3.152-0.304-3.482c0.646-0.33,1.829,0.694,2.644,2.287
			C167.795,342.001,167.931,343.561,167.285,343.891z M168.963,336.51c-1.767,0.281-3.291-0.071-3.406-0.788
			c-0.113-0.717,1.227-1.525,2.994-1.807c1.767-0.281,3.292,0.07,3.405,0.788C172.071,335.419,170.73,336.229,168.963,336.51z"/>
	</g>
	<g>
		<g>
			<g>
				<path d="M109.283,213.39c0.639-0.637,1.391-0.897,2.835-0.897h5.816c1.619,0,2.574,0.287,3.154,0.897
					c0.725,0.72,0.956,1.562,0.956,4.251v10.764h-4.428v-1.82c-1.91,1.562-2.604,1.85-4.021,1.85h-2.172
					c-1.417,0-2.17-0.173-2.806-0.807c-0.551-0.553-0.924-1.479-0.924-3.56c0-1.968,0.287-3.185,0.984-3.879
					c0.721-0.723,1.646-1.071,4.51-1.071c1.535,0,3.126,0.176,4.429,0.463v-1.418c0-1.562-0.088-1.881-0.29-2.112
					c-0.204-0.176-0.492-0.234-1.157-0.234h-2.227c-0.608,0-0.928,0.059-1.102,0.234c-0.23,0.231-0.261,0.55-0.318,1.505h-4.192
					C108.357,214.896,108.618,214.022,109.283,213.39z M117.617,224.44v-2.661h-2.921c-1.681,0-2.085,0.115-2.375,0.402
					c-0.287,0.292-0.346,0.639-0.346,1.362c0,0.812,0.059,1.244,0.289,1.477c0.231,0.229,0.549,0.258,1.128,0.258h1.243
					C115.563,225.278,116.17,225.193,117.617,224.44z"/>
				<path d="M133.988,228.404v-2.054c-1.997,1.737-2.691,2.083-3.995,2.083h-1.677c-1.681,0-2.575-0.288-3.269-0.982
					c-0.953-0.954-1.331-2.346-1.331-7.004c0-4.688,0.46-6.016,1.445-7.002c0.696-0.692,1.62-0.981,3.211-0.981h1.736
					c1.331,0,2.055,0.289,3.879,1.822v-7.233h4.428v21.352H133.988z M133.988,224.209v-7.579c-0.928-0.434-1.593-0.636-2.316-0.636
					h-1.589c-0.812,0-1.191,0.114-1.45,0.375c-0.404,0.375-0.519,1.043-0.519,4.078c0,3.038,0.114,3.677,0.519,4.083
					c0.259,0.258,0.639,0.347,1.45,0.347h1.444C132.28,224.877,133.002,224.672,133.988,224.209z"/>
				<path d="M141.679,213.39c0.636-0.637,1.389-0.897,2.834-0.897h5.817c1.62,0,2.573,0.287,3.155,0.897
					c0.722,0.72,0.953,1.562,0.953,4.251v10.764h-4.428v-1.82c-1.909,1.562-2.604,1.85-4.021,1.85h-2.168
					c-1.419,0-2.174-0.173-2.808-0.807c-0.551-0.553-0.928-1.479-0.928-3.56c0-1.968,0.289-3.185,0.984-3.879
					c0.724-0.723,1.649-1.071,4.514-1.071c1.535,0,3.124,0.176,4.427,0.463v-1.418c0-1.562-0.087-1.881-0.289-2.112
					c-0.2-0.176-0.493-0.234-1.157-0.234h-2.228c-0.608,0-0.926,0.059-1.099,0.234c-0.233,0.231-0.261,0.55-0.321,1.505h-4.193
					C140.753,214.896,141.014,214.022,141.679,213.39z M150.011,224.44v-2.661h-2.92c-1.68,0-2.086,0.115-2.374,0.402
					c-0.289,0.292-0.348,0.639-0.348,1.362c0,0.812,0.059,1.244,0.29,1.477c0.23,0.229,0.548,0.258,1.128,0.258h1.242
					C147.957,225.278,148.564,225.193,150.011,224.44z"/>
				<path d="M156.108,228.404v-16.665c0-1.997,0.263-3.04,0.928-3.703c0.666-0.665,1.418-0.983,3.124-0.983h3.646v3.354h-2.145
					c-0.576,0-0.75,0.059-0.923,0.202c-0.146,0.176-0.202,0.489-0.202,1.274v0.638h3.27v3.443h-3.242v12.439H156.108z"/>
				<path d="M165.478,228.404v-15.912h4.424v2.43c1.651-1.708,2.489-2.458,3.762-2.458h1.707v4.368h-2.054
					c-1.214,0-2.14,0.114-3.415,0.636v10.937H165.478z"/>
				<path d="M191.363,212.492v15.912h-4.456v-2.109c-2.024,1.821-2.69,2.139-4.138,2.139h-1.938c-1.389,0-2.257-0.288-2.862-0.896
					c-0.639-0.665-0.927-1.503-0.927-3.82v-11.225h4.456v10.734c0,0.663,0.085,1.041,0.346,1.304
					c0.261,0.258,0.521,0.347,1.302,0.347h1.276c0.75,0,1.418-0.176,2.485-0.639v-11.746H191.363z"/>
				<path d="M197.381,210.29h-4.368v-3.237h4.368V210.29z M197.381,228.404h-4.368v-15.912h4.368V228.404z"/>
				<path d="M206.779,224.905h-1.908c-0.727,0-1.016-0.061-1.157-0.175c-0.146-0.174-0.204-0.404-0.204-1.1v-7.666h3.27v-3.473
					h-3.27v-2.202h-4.456v2.202v3.473v8.854c0,1.62,0.202,2.344,0.724,2.864c0.55,0.551,1.358,0.865,2.865,0.865
					c1.186,0,2.373-0.173,3.066-0.346l1.07-0.278V224.905z"/>
			</g>
		</g>
		<path d="M116.214,202.277c-0.152-0.961-0.674-1.236-1.933-1.639c-0.956-0.307-7.36-2.347-7.36-2.347s-4.464-1.687-7.772,0.698
			c-0.445,0.322-0.907,0.688-1.371,1.078c0.39-0.464,0.756-0.926,1.076-1.371c2.378-3.313,0.685-7.775,0.685-7.775
			s-2.051-6.398-2.36-7.356c-0.405-1.257-0.68-1.778-1.642-1.928c-0.964-0.152-1.385,0.258-2.156,1.33
			c-0.588,0.814-4.508,6.275-4.508,6.275s-2.98,3.724-1.737,7.608c0.169,0.521,0.374,1.074,0.604,1.637
			c-0.322-0.515-0.648-1.005-0.974-1.447c-2.417-3.284-7.181-3.055-7.181-3.055s-6.721-0.026-7.726-0.027
			c-1.321-0.005-1.901,0.098-2.344,0.965c-0.441,0.867-0.181,1.397,0.601,2.461c0.593,0.812,4.576,6.226,4.576,6.226
			s2.62,3.987,6.697,4.004c0.548,0.003,1.135-0.022,1.738-0.066c-0.586,0.146-1.152,0.307-1.673,0.478
			c-3.871,1.283-5.122,5.888-5.122,5.888s-2.103,6.384-2.416,7.34c-0.41,1.254-0.493,1.837,0.195,2.524
			c0.688,0.689,1.272,0.604,2.526,0.19c0.955-0.312,7.336-2.428,7.336-2.428s4.6-1.261,5.874-5.134
			c0.173-0.521,0.33-1.086,0.477-1.67c-0.043,0.602-0.066,1.188-0.062,1.735c0.021,4.078,4.014,6.691,4.014,6.691
			s5.421,3.97,6.232,4.563c1.068,0.777,1.596,1.038,2.464,0.596c0.866-0.442,0.967-1.022,0.961-2.345
			c-0.004-1.004-0.044-7.725-0.044-7.725s0.225-4.765-3.064-7.176c-0.442-0.324-0.932-0.649-1.445-0.969
			c0.561,0.226,1.111,0.431,1.635,0.595c3.885,1.239,7.605-1.749,7.605-1.749s5.452-3.929,6.267-4.518
			C115.957,203.663,116.366,203.238,116.214,202.277z M93.064,197.329c0.734,0.114,1.098,1.675,0.811,3.482
			c-0.283,1.809-1.107,3.18-1.842,3.064c-0.732-0.116-1.097-1.675-0.812-3.482C91.506,198.586,92.331,197.214,93.064,197.329z
			 M83.677,202.122c0.335-0.662,1.931-0.524,3.561,0.305c1.632,0.829,2.683,2.039,2.346,2.7c-0.337,0.66-1.931,0.525-3.562-0.304
			C84.39,203.994,83.34,202.784,83.677,202.122z M88.626,211.14c-1.293,1.295-2.767,1.919-3.291,1.395
			c-0.526-0.524,0.097-1.999,1.39-3.294c1.292-1.297,2.766-1.921,3.292-1.396C90.542,208.368,89.92,209.844,88.626,211.14z
			 M95.748,214.175c-0.662,0.337-1.873-0.71-2.704-2.339c-0.832-1.631-0.971-3.228-0.309-3.564c0.66-0.337,1.869,0.711,2.702,2.341
			C96.27,212.241,96.41,213.837,95.748,214.175z M97.465,206.625c-1.808,0.289-3.367-0.073-3.484-0.806
			c-0.116-0.733,1.254-1.562,3.062-1.849c1.807-0.287,3.366,0.073,3.482,0.806C100.643,205.509,99.272,206.338,97.465,206.625z"/>
	</g>
	<g>
		<g>
			<g>
				<path fill="#808080" d="M346.966,364.288c0.641-0.639,1.394-0.899,2.843-0.899h5.834c1.623,0,2.58,0.287,3.163,0.899
					c0.726,0.723,0.958,1.566,0.958,4.265v10.794h-4.441v-1.826c-1.914,1.565-2.61,1.855-4.032,1.855h-2.178
					c-1.42,0-2.176-0.176-2.813-0.811c-0.552-0.554-0.928-1.48-0.928-3.57c0-1.973,0.29-3.191,0.987-3.889
					c0.724-0.726,1.652-1.076,4.523-1.076c1.539,0,3.136,0.178,4.44,0.467v-1.422c0-1.568-0.086-1.887-0.289-2.117
					c-0.205-0.178-0.494-0.235-1.16-0.235h-2.234c-0.61,0-0.931,0.058-1.104,0.235c-0.23,0.23-0.262,0.549-0.32,1.508h-4.203
					C346.037,365.798,346.299,364.925,346.966,364.288z M355.322,375.37v-2.668h-2.929c-1.686,0-2.09,0.115-2.381,0.404
					c-0.289,0.292-0.348,0.641-0.348,1.365c0,0.813,0.059,1.248,0.289,1.48c0.233,0.231,0.553,0.26,1.133,0.26h1.248
					C353.264,376.212,353.873,376.126,355.322,375.37z"/>
				<path fill="#808080" d="M371.742,379.347v-2.06c-2.003,1.742-2.7,2.089-4.009,2.089h-1.682c-1.684,0-2.58-0.29-3.277-0.984
					c-0.956-0.959-1.336-2.354-1.336-7.025c0-4.7,0.462-6.033,1.453-7.023c0.696-0.693,1.623-0.982,3.219-0.982h1.74
					c1.335,0,2.062,0.289,3.892,1.826v-7.253h4.439v21.413H371.742z M371.742,375.14v-7.601c-0.933-0.436-1.599-0.641-2.323-0.641
					h-1.596c-0.812,0-1.191,0.118-1.452,0.378c-0.405,0.377-0.521,1.046-0.521,4.09c0,3.047,0.115,3.688,0.521,4.095
					c0.261,0.259,0.64,0.348,1.452,0.348h1.449C370.028,375.809,370.753,375.604,371.742,375.14z"/>
				<path fill="#808080" d="M379.453,364.288c0.639-0.639,1.393-0.899,2.843-0.899h5.833c1.624,0,2.582,0.287,3.163,0.899
					c0.726,0.723,0.958,1.566,0.958,4.265v10.794h-4.44v-1.826c-1.915,1.565-2.611,1.855-4.033,1.855h-2.174
					c-1.425,0-2.181-0.176-2.816-0.811c-0.553-0.554-0.931-1.48-0.931-3.57c0-1.973,0.291-3.191,0.987-3.889
					c0.726-0.726,1.653-1.076,4.527-1.076c1.538,0,3.135,0.178,4.439,0.467v-1.422c0-1.568-0.088-1.887-0.289-2.117
					c-0.203-0.178-0.496-0.235-1.162-0.235h-2.232c-0.611,0-0.93,0.058-1.104,0.235c-0.232,0.23-0.261,0.549-0.32,1.508h-4.208
					C378.524,365.798,378.786,364.925,379.453,364.288z M387.81,375.37v-2.668h-2.93c-1.684,0-2.09,0.115-2.38,0.404
					c-0.289,0.292-0.348,0.641-0.348,1.365c0,0.813,0.059,1.248,0.29,1.48c0.232,0.231,0.55,0.26,1.131,0.26h1.246
					C385.749,376.212,386.358,376.126,387.81,375.37z"/>
				<path fill="#808080" d="M393.924,379.347v-16.713c0-2.002,0.264-3.048,0.931-3.715c0.667-0.666,1.421-0.985,3.133-0.985h3.657
					v3.364h-2.15c-0.579,0-0.754,0.059-0.926,0.205c-0.147,0.173-0.205,0.49-0.205,1.276v0.639h3.281v3.452h-3.252v12.477H393.924z"
					/>
				<path fill="#808080" d="M403.319,379.347v-15.958h4.438v2.437c1.656-1.713,2.497-2.465,3.773-2.465h1.712v4.38h-2.061
					c-1.219,0-2.147,0.115-3.425,0.638v10.969H403.319z"/>
				<path fill="#808080" d="M429.279,363.389v15.958h-4.468v-2.116c-2.03,1.827-2.697,2.146-4.149,2.146h-1.943
					c-1.395,0-2.266-0.29-2.872-0.9c-0.64-0.666-0.929-1.508-0.929-3.829v-11.258h4.469v10.765c0,0.665,0.085,1.045,0.347,1.308
					c0.262,0.259,0.522,0.348,1.307,0.348h1.277c0.753,0,1.421-0.175,2.494-0.64v-11.78H429.279z"/>
				<path fill="#808080" d="M435.316,361.183h-4.381v-3.249h4.381V361.183z M435.316,379.347h-4.381v-15.958h4.381V379.347z"/>
				<path fill="#808080" d="M444.739,375.837h-1.914c-0.729,0-1.017-0.059-1.16-0.175c-0.146-0.174-0.205-0.404-0.205-1.104v-7.688
					h3.279v-3.481h-3.279v-2.206h-4.468v2.206v3.481v8.881c0,1.623,0.203,2.348,0.728,2.871c0.55,0.551,1.36,0.869,2.872,0.869
					c1.188,0,2.379-0.174,3.074-0.348l1.073-0.278V375.837z"/>
			</g>
		</g>
		<path fill="#808080" d="M425.254,332.261c-0.15-0.942-0.659-1.209-1.89-1.604c-0.934-0.299-7.196-2.294-7.196-2.294
			s-4.363-1.648-7.599,0.684c-0.437,0.314-0.886,0.671-1.34,1.053c0.381-0.453,0.737-0.905,1.051-1.342
			c2.325-3.238,0.669-7.6,0.669-7.6s-2.006-6.258-2.306-7.192c-0.398-1.229-0.667-1.739-1.607-1.886
			c-0.939-0.148-1.352,0.254-2.106,1.301c-0.574,0.797-4.407,6.136-4.407,6.136s-2.914,3.642-1.697,7.438
			c0.163,0.511,0.364,1.05,0.588,1.6c-0.314-0.504-0.634-0.982-0.952-1.414c-2.361-3.211-7.021-2.985-7.021-2.985
			s-6.57-0.026-7.553-0.028c-1.293-0.004-1.86,0.096-2.291,0.943c-0.433,0.85-0.176,1.365,0.587,2.406
			c0.58,0.793,4.474,6.088,4.474,6.088s2.562,3.896,6.55,3.913c0.535,0.002,1.109-0.021,1.699-0.063
			c-0.574,0.143-1.127,0.299-1.635,0.467c-3.786,1.255-5.01,5.754-5.01,5.754s-2.056,6.242-2.361,7.176
			c-0.401,1.229-0.483,1.798,0.19,2.471c0.674,0.672,1.243,0.59,2.47,0.186c0.934-0.307,7.172-2.373,7.172-2.373
			s4.498-1.233,5.744-5.021c0.168-0.509,0.322-1.06,0.466-1.634c-0.041,0.59-0.065,1.162-0.061,1.698
			c0.023,3.987,3.924,6.542,3.924,6.542s5.301,3.883,6.095,4.463c1.044,0.76,1.561,1.014,2.408,0.581
			c0.849-0.433,0.945-0.999,0.939-2.292c-0.002-0.981-0.041-7.553-0.041-7.553s0.219-4.658-2.998-7.016
			c-0.432-0.316-0.908-0.635-1.413-0.947c0.551,0.221,1.088,0.42,1.599,0.582c3.799,1.211,7.434-1.71,7.434-1.71
			s5.333-3.841,6.128-4.417C425.003,333.612,425.403,333.2,425.254,332.261z M402.621,327.421c0.717,0.113,1.072,1.638,0.794,3.405
			c-0.277,1.767-1.084,3.108-1.801,2.996c-0.718-0.113-1.074-1.638-0.795-3.405S401.904,327.308,402.621,327.421z M393.442,332.108
			c0.329-0.646,1.888-0.514,3.482,0.297c1.596,0.811,2.622,1.993,2.293,2.639c-0.329,0.648-1.888,0.515-3.483-0.295
			C394.139,333.938,393.113,332.755,393.442,332.108z M398.281,340.923c-1.264,1.266-2.705,1.878-3.219,1.365
			c-0.513-0.513,0.096-1.955,1.359-3.222c1.265-1.267,2.705-1.878,3.219-1.365S399.545,339.657,398.281,340.923z M405.245,343.891
			c-0.646,0.331-1.83-0.694-2.644-2.288c-0.813-1.593-0.95-3.152-0.304-3.482c0.646-0.33,1.829,0.694,2.644,2.287
			C405.755,342.001,405.891,343.561,405.245,343.891z M406.923,336.51c-1.767,0.281-3.291-0.071-3.406-0.788
			c-0.113-0.717,1.227-1.525,2.994-1.807c1.767-0.281,3.292,0.07,3.405,0.788C410.031,335.419,408.69,336.229,406.923,336.51z"/>
	</g>
	<g>
		<g>
			<g>
				<path fill="#808080" d="M347.243,213.39c0.639-0.637,1.391-0.897,2.835-0.897h5.816c1.619,0,2.574,0.287,3.154,0.897
					c0.725,0.72,0.956,1.562,0.956,4.251v10.764h-4.428v-1.82c-1.91,1.562-2.604,1.85-4.021,1.85h-2.172
					c-1.417,0-2.17-0.173-2.806-0.807c-0.551-0.553-0.924-1.479-0.924-3.56c0-1.968,0.287-3.185,0.984-3.879
					c0.721-0.723,1.646-1.071,4.51-1.071c1.535,0,3.126,0.176,4.429,0.463v-1.418c0-1.562-0.088-1.881-0.29-2.112
					c-0.204-0.176-0.492-0.234-1.157-0.234h-2.227c-0.608,0-0.928,0.059-1.102,0.234c-0.23,0.231-0.261,0.55-0.318,1.505h-4.192
					C346.317,214.896,346.578,214.022,347.243,213.39z M355.577,224.44v-2.661h-2.921c-1.681,0-2.085,0.115-2.375,0.402
					c-0.287,0.292-0.346,0.639-0.346,1.362c0,0.812,0.059,1.244,0.289,1.477c0.231,0.229,0.549,0.258,1.128,0.258h1.243
					C353.523,225.278,354.13,225.193,355.577,224.44z"/>
				<path fill="#808080" d="M371.948,228.404v-2.054c-1.997,1.737-2.691,2.083-3.995,2.083h-1.677c-1.681,0-2.575-0.288-3.269-0.982
					c-0.953-0.954-1.331-2.346-1.331-7.004c0-4.688,0.46-6.016,1.445-7.002c0.696-0.692,1.62-0.981,3.211-0.981h1.736
					c1.331,0,2.055,0.289,3.879,1.822v-7.233h4.428v21.352H371.948z M371.948,224.209v-7.579c-0.928-0.434-1.593-0.636-2.316-0.636
					h-1.589c-0.812,0-1.191,0.114-1.45,0.375c-0.404,0.375-0.519,1.043-0.519,4.078c0,3.038,0.114,3.677,0.519,4.083
					c0.259,0.258,0.639,0.347,1.45,0.347h1.444C370.24,224.877,370.962,224.672,371.948,224.209z"/>
				<path fill="#808080" d="M379.639,213.39c0.636-0.637,1.389-0.897,2.834-0.897h5.817c1.62,0,2.573,0.287,3.155,0.897
					c0.722,0.72,0.953,1.562,0.953,4.251v10.764h-4.428v-1.82c-1.909,1.562-2.604,1.85-4.021,1.85h-2.168
					c-1.419,0-2.174-0.173-2.808-0.807c-0.551-0.553-0.928-1.479-0.928-3.56c0-1.968,0.289-3.185,0.984-3.879
					c0.724-0.723,1.649-1.071,4.514-1.071c1.535,0,3.124,0.176,4.427,0.463v-1.418c0-1.562-0.087-1.881-0.289-2.112
					c-0.2-0.176-0.493-0.234-1.157-0.234h-2.228c-0.608,0-0.926,0.059-1.099,0.234c-0.233,0.231-0.261,0.55-0.321,1.505h-4.193
					C378.713,214.896,378.974,214.022,379.639,213.39z M387.971,224.44v-2.661h-2.92c-1.68,0-2.086,0.115-2.374,0.402
					c-0.289,0.292-0.348,0.639-0.348,1.362c0,0.812,0.059,1.244,0.29,1.477c0.23,0.229,0.548,0.258,1.128,0.258h1.242
					C385.917,225.278,386.524,225.193,387.971,224.44z"/>
				<path fill="#808080" d="M394.068,228.404v-16.665c0-1.997,0.263-3.04,0.928-3.703c0.666-0.665,1.418-0.983,3.124-0.983h3.646
					v3.354h-2.145c-0.576,0-0.75,0.059-0.923,0.202c-0.146,0.176-0.202,0.489-0.202,1.274v0.638h3.27v3.443h-3.242v12.439H394.068z"
					/>
				<path fill="#808080" d="M403.438,228.404v-15.912h4.424v2.43c1.651-1.708,2.489-2.458,3.762-2.458h1.707v4.368h-2.054
					c-1.214,0-2.14,0.114-3.415,0.636v10.937H403.438z"/>
				<path fill="#808080" d="M429.323,212.492v15.912h-4.456v-2.109c-2.024,1.821-2.69,2.139-4.138,2.139h-1.938
					c-1.389,0-2.257-0.288-2.862-0.896c-0.639-0.665-0.927-1.503-0.927-3.82v-11.225h4.456v10.734c0,0.663,0.085,1.041,0.346,1.304
					c0.261,0.258,0.521,0.347,1.302,0.347h1.276c0.75,0,1.418-0.176,2.485-0.639v-11.746H429.323z"/>
				<path fill="#808080" d="M435.341,210.29h-4.368v-3.237h4.368V210.29z M435.341,228.404h-4.368v-15.912h4.368V228.404z"/>
				<path fill="#808080" d="M444.739,224.905h-1.908c-0.727,0-1.016-0.061-1.157-0.175c-0.146-0.174-0.204-0.404-0.204-1.1v-7.666
					h3.27v-3.473h-3.27v-2.202h-4.456v2.202v3.473v8.854c0,1.62,0.202,2.344,0.724,2.864c0.55,0.551,1.358,0.865,2.865,0.865
					c1.186,0,2.373-0.173,3.066-0.346l1.07-0.278V224.905z"/>
			</g>
		</g>
		<path fill="#808080" d="M354.174,202.277c-0.152-0.961-0.674-1.236-1.933-1.639c-0.956-0.307-7.36-2.347-7.36-2.347
			s-4.464-1.687-7.772,0.698c-0.445,0.322-0.907,0.688-1.371,1.078c0.39-0.464,0.756-0.926,1.076-1.371
			c2.378-3.313,0.685-7.775,0.685-7.775s-2.051-6.398-2.36-7.356c-0.405-1.257-0.68-1.778-1.642-1.928
			c-0.964-0.152-1.385,0.258-2.156,1.33c-0.588,0.814-4.508,6.275-4.508,6.275s-2.98,3.724-1.737,7.608
			c0.169,0.521,0.374,1.074,0.604,1.637c-0.322-0.515-0.648-1.005-0.974-1.447c-2.417-3.284-7.181-3.055-7.181-3.055
			s-6.721-0.026-7.726-0.027c-1.321-0.005-1.901,0.098-2.344,0.965c-0.441,0.867-0.181,1.397,0.601,2.461
			c0.593,0.812,4.576,6.226,4.576,6.226s2.62,3.987,6.697,4.004c0.548,0.003,1.135-0.022,1.738-0.066
			c-0.586,0.146-1.152,0.307-1.673,0.478c-3.871,1.283-5.122,5.888-5.122,5.888s-2.103,6.384-2.416,7.34
			c-0.41,1.254-0.493,1.837,0.195,2.524c0.688,0.689,1.272,0.604,2.526,0.19c0.955-0.312,7.336-2.428,7.336-2.428
			s4.6-1.261,5.874-5.134c0.173-0.521,0.33-1.086,0.477-1.67c-0.043,0.602-0.066,1.188-0.062,1.735
			c0.021,4.078,4.014,6.691,4.014,6.691s5.421,3.97,6.232,4.563c1.068,0.777,1.596,1.038,2.464,0.596
			c0.866-0.442,0.967-1.022,0.961-2.345c-0.004-1.004-0.044-7.725-0.044-7.725s0.225-4.765-3.064-7.176
			c-0.442-0.324-0.932-0.649-1.445-0.969c0.561,0.226,1.111,0.431,1.635,0.595c3.885,1.239,7.605-1.749,7.605-1.749
			s5.452-3.929,6.267-4.518C353.917,203.663,354.326,203.238,354.174,202.277z M331.024,197.329
			c0.734,0.114,1.098,1.675,0.811,3.482c-0.283,1.809-1.107,3.18-1.842,3.064c-0.732-0.116-1.097-1.675-0.812-3.482
			C329.466,198.586,330.291,197.214,331.024,197.329z M321.637,202.122c0.335-0.662,1.931-0.524,3.561,0.305
			c1.632,0.829,2.683,2.039,2.346,2.7c-0.337,0.66-1.931,0.525-3.562-0.304C322.35,203.994,321.3,202.784,321.637,202.122z
			 M326.586,211.14c-1.293,1.295-2.767,1.919-3.291,1.395c-0.526-0.524,0.097-1.999,1.39-3.294c1.292-1.297,2.766-1.921,3.292-1.396
			C328.502,208.368,327.88,209.844,326.586,211.14z M333.708,214.175c-0.662,0.337-1.873-0.71-2.704-2.339
			c-0.832-1.631-0.971-3.228-0.309-3.564c0.66-0.337,1.869,0.711,2.702,2.341C334.229,212.241,334.37,213.837,333.708,214.175z
			 M335.425,206.625c-1.808,0.289-3.367-0.073-3.484-0.806c-0.116-0.733,1.254-1.562,3.062-1.849
			c1.807-0.287,3.366,0.073,3.482,0.806C338.603,205.509,337.232,206.338,335.425,206.625z"/>
	</g>
	<g>
		<g>
			<g>
				<path fill="#FFFFFF" d="M584.227,364.288c0.641-0.639,1.394-0.899,2.843-0.899h5.834c1.623,0,2.58,0.287,3.163,0.899
					c0.726,0.723,0.958,1.566,0.958,4.265v10.794h-4.441v-1.826c-1.914,1.565-2.61,1.855-4.032,1.855h-2.178
					c-1.42,0-2.176-0.176-2.813-0.811c-0.552-0.554-0.928-1.48-0.928-3.57c0-1.973,0.29-3.191,0.987-3.889
					c0.724-0.726,1.652-1.076,4.523-1.076c1.539,0,3.136,0.178,4.44,0.467v-1.422c0-1.568-0.086-1.887-0.289-2.117
					c-0.205-0.178-0.494-0.235-1.16-0.235h-2.234c-0.61,0-0.931,0.058-1.104,0.235c-0.23,0.23-0.262,0.549-0.32,1.508h-4.203
					C583.298,365.798,583.56,364.925,584.227,364.288z M592.583,375.37v-2.668h-2.929c-1.686,0-2.09,0.115-2.381,0.404
					c-0.289,0.292-0.348,0.641-0.348,1.365c0,0.813,0.059,1.248,0.289,1.48c0.233,0.231,0.553,0.26,1.133,0.26h1.248
					C590.524,376.212,591.134,376.126,592.583,375.37z"/>
				<path fill="#FFFFFF" d="M609.003,379.347v-2.06c-2.003,1.742-2.7,2.089-4.009,2.089h-1.682c-1.684,0-2.58-0.29-3.277-0.984
					c-0.956-0.959-1.336-2.354-1.336-7.025c0-4.7,0.462-6.033,1.453-7.023c0.696-0.693,1.623-0.982,3.219-0.982h1.74
					c1.335,0,2.062,0.289,3.892,1.826v-7.253h4.439v21.413H609.003z M609.003,375.14v-7.601c-0.933-0.436-1.599-0.641-2.323-0.641
					h-1.596c-0.812,0-1.191,0.118-1.452,0.378c-0.405,0.377-0.521,1.046-0.521,4.09c0,3.047,0.115,3.688,0.521,4.095
					c0.261,0.259,0.64,0.348,1.452,0.348h1.449C607.289,375.809,608.014,375.604,609.003,375.14z"/>
				<path fill="#FFFFFF" d="M616.714,364.288c0.639-0.639,1.393-0.899,2.843-0.899h5.833c1.624,0,2.582,0.287,3.163,0.899
					c0.726,0.723,0.958,1.566,0.958,4.265v10.794h-4.44v-1.826c-1.915,1.565-2.611,1.855-4.033,1.855h-2.174
					c-1.425,0-2.181-0.176-2.816-0.811c-0.553-0.554-0.931-1.48-0.931-3.57c0-1.973,0.291-3.191,0.987-3.889
					c0.726-0.726,1.653-1.076,4.527-1.076c1.538,0,3.135,0.178,4.439,0.467v-1.422c0-1.568-0.088-1.887-0.289-2.117
					c-0.203-0.178-0.496-0.235-1.162-0.235h-2.232c-0.611,0-0.93,0.058-1.104,0.235c-0.232,0.23-0.261,0.549-0.32,1.508h-4.208
					C615.785,365.798,616.047,364.925,616.714,364.288z M625.07,375.37v-2.668h-2.93c-1.684,0-2.09,0.115-2.38,0.404
					c-0.289,0.292-0.348,0.641-0.348,1.365c0,0.813,0.059,1.248,0.29,1.48c0.232,0.231,0.55,0.26,1.131,0.26h1.246
					C623.01,376.212,623.619,376.126,625.07,375.37z"/>
				<path fill="#FFFFFF" d="M631.185,379.347v-16.713c0-2.002,0.264-3.048,0.931-3.715c0.667-0.666,1.421-0.985,3.133-0.985h3.657
					v3.364h-2.15c-0.579,0-0.754,0.059-0.926,0.205c-0.147,0.173-0.205,0.49-0.205,1.276v0.639h3.281v3.452h-3.252v12.477H631.185z"
					/>
				<path fill="#FFFFFF" d="M640.58,379.347v-15.958h4.438v2.437c1.656-1.713,2.497-2.465,3.773-2.465h1.712v4.38h-2.061
					c-1.219,0-2.147,0.115-3.425,0.638v10.969H640.58z"/>
				<path fill="#FFFFFF" d="M666.54,363.389v15.958h-4.468v-2.116c-2.03,1.827-2.697,2.146-4.149,2.146h-1.943
					c-1.395,0-2.266-0.29-2.872-0.9c-0.64-0.666-0.929-1.508-0.929-3.829v-11.258h4.469v10.765c0,0.665,0.085,1.045,0.347,1.308
					c0.262,0.259,0.522,0.348,1.307,0.348h1.277c0.753,0,1.421-0.175,2.494-0.64v-11.78H666.54z"/>
				<path fill="#FFFFFF" d="M672.577,361.183h-4.381v-3.249h4.381V361.183z M672.577,379.347h-4.381v-15.958h4.381V379.347z"/>
				<path fill="#FFFFFF" d="M682,375.837h-1.914c-0.729,0-1.017-0.059-1.16-0.175c-0.146-0.174-0.205-0.404-0.205-1.104v-7.688H682
					v-3.481h-3.279v-2.206h-4.468v2.206v3.481v8.881c0,1.623,0.203,2.348,0.728,2.871c0.55,0.551,1.36,0.869,2.872,0.869
					c1.188,0,2.379-0.174,3.074-0.348l1.073-0.278V375.837z"/>
			</g>
		</g>
		<path fill="#FFFFFF" d="M662.515,332.261c-0.15-0.942-0.659-1.209-1.89-1.604c-0.934-0.299-7.196-2.294-7.196-2.294
			s-4.363-1.648-7.599,0.684c-0.437,0.314-0.886,0.671-1.34,1.053c0.381-0.453,0.737-0.905,1.051-1.342
			c2.325-3.238,0.669-7.6,0.669-7.6s-2.006-6.258-2.306-7.192c-0.398-1.229-0.667-1.739-1.607-1.886
			c-0.939-0.148-1.352,0.254-2.106,1.301c-0.574,0.797-4.407,6.136-4.407,6.136s-2.914,3.642-1.697,7.438
			c0.163,0.511,0.364,1.05,0.588,1.6c-0.314-0.504-0.634-0.982-0.952-1.414c-2.361-3.211-7.021-2.985-7.021-2.985
			s-6.57-0.026-7.553-0.028c-1.293-0.004-1.86,0.096-2.291,0.943c-0.433,0.85-0.176,1.365,0.587,2.406
			c0.58,0.793,4.474,6.088,4.474,6.088s2.562,3.896,6.55,3.913c0.535,0.002,1.109-0.021,1.699-0.063
			c-0.574,0.143-1.127,0.299-1.635,0.467c-3.786,1.255-5.01,5.754-5.01,5.754s-2.056,6.242-2.361,7.176
			c-0.401,1.229-0.483,1.798,0.19,2.471c0.674,0.672,1.243,0.59,2.47,0.186c0.934-0.307,7.172-2.373,7.172-2.373
			s4.498-1.233,5.744-5.021c0.168-0.509,0.322-1.06,0.466-1.634c-0.041,0.59-0.065,1.162-0.061,1.698
			c0.023,3.987,3.924,6.542,3.924,6.542s5.301,3.883,6.095,4.463c1.044,0.76,1.561,1.014,2.408,0.581
			c0.849-0.433,0.945-0.999,0.939-2.292c-0.002-0.981-0.041-7.553-0.041-7.553s0.219-4.658-2.998-7.016
			c-0.432-0.316-0.908-0.635-1.413-0.947c0.551,0.221,1.088,0.42,1.599,0.582c3.799,1.211,7.434-1.71,7.434-1.71
			s5.333-3.841,6.128-4.417C662.264,333.612,662.664,333.2,662.515,332.261z M639.882,327.421c0.717,0.113,1.072,1.638,0.794,3.405
			c-0.277,1.767-1.084,3.108-1.801,2.996c-0.718-0.113-1.074-1.638-0.795-3.405S639.165,327.308,639.882,327.421z M630.703,332.108
			c0.329-0.646,1.888-0.514,3.482,0.297c1.596,0.811,2.622,1.993,2.293,2.639c-0.329,0.648-1.888,0.515-3.483-0.295
			C631.399,333.938,630.374,332.755,630.703,332.108z M635.542,340.923c-1.264,1.266-2.705,1.878-3.219,1.365
			c-0.513-0.513,0.096-1.955,1.359-3.222c1.265-1.267,2.705-1.878,3.219-1.365S636.806,339.657,635.542,340.923z M642.506,343.891
			c-0.646,0.331-1.83-0.694-2.644-2.288c-0.813-1.593-0.95-3.152-0.304-3.482c0.646-0.33,1.829,0.694,2.644,2.287
			C643.016,342.001,643.151,343.561,642.506,343.891z M644.184,336.51c-1.767,0.281-3.291-0.071-3.406-0.788
			c-0.113-0.717,1.227-1.525,2.994-1.807c1.767-0.281,3.292,0.07,3.405,0.788C647.292,335.419,645.951,336.229,644.184,336.51z"/>
	</g>
	<g>
		<g>
			<g>
				<path fill="#FFFFFF" d="M584.504,213.39c0.639-0.637,1.391-0.897,2.835-0.897h5.816c1.619,0,2.574,0.287,3.154,0.897
					c0.725,0.72,0.956,1.562,0.956,4.251v10.764h-4.428v-1.82c-1.91,1.562-2.604,1.85-4.021,1.85h-2.172
					c-1.417,0-2.17-0.173-2.806-0.807c-0.551-0.553-0.924-1.479-0.924-3.56c0-1.968,0.287-3.185,0.984-3.879
					c0.721-0.723,1.646-1.071,4.51-1.071c1.535,0,3.126,0.176,4.429,0.463v-1.418c0-1.562-0.088-1.881-0.29-2.112
					c-0.204-0.176-0.492-0.234-1.157-0.234h-2.227c-0.608,0-0.928,0.059-1.102,0.234c-0.23,0.231-0.261,0.55-0.318,1.505h-4.192
					C583.578,214.896,583.839,214.022,584.504,213.39z M592.838,224.44v-2.661h-2.921c-1.681,0-2.085,0.115-2.375,0.402
					c-0.287,0.292-0.346,0.639-0.346,1.362c0,0.812,0.059,1.244,0.289,1.477c0.231,0.229,0.549,0.258,1.128,0.258h1.243
					C590.784,225.278,591.391,225.193,592.838,224.44z"/>
				<path fill="#FFFFFF" d="M609.209,228.404v-2.054c-1.997,1.737-2.691,2.083-3.995,2.083h-1.677c-1.681,0-2.575-0.288-3.269-0.982
					c-0.953-0.954-1.331-2.346-1.331-7.004c0-4.688,0.46-6.016,1.445-7.002c0.696-0.692,1.62-0.981,3.211-0.981h1.736
					c1.331,0,2.055,0.289,3.879,1.822v-7.233h4.428v21.352H609.209z M609.209,224.209v-7.579c-0.928-0.434-1.593-0.636-2.316-0.636
					h-1.589c-0.812,0-1.191,0.114-1.45,0.375c-0.404,0.375-0.519,1.043-0.519,4.078c0,3.038,0.114,3.677,0.519,4.083
					c0.259,0.258,0.639,0.347,1.45,0.347h1.444C607.501,224.877,608.223,224.672,609.209,224.209z"/>
				<path fill="#FFFFFF" d="M616.899,213.39c0.636-0.637,1.389-0.897,2.834-0.897h5.817c1.62,0,2.573,0.287,3.155,0.897
					c0.722,0.72,0.953,1.562,0.953,4.251v10.764h-4.428v-1.82c-1.909,1.562-2.604,1.85-4.021,1.85h-2.168
					c-1.419,0-2.174-0.173-2.808-0.807c-0.551-0.553-0.928-1.479-0.928-3.56c0-1.968,0.289-3.185,0.984-3.879
					c0.724-0.723,1.649-1.071,4.514-1.071c1.535,0,3.124,0.176,4.427,0.463v-1.418c0-1.562-0.087-1.881-0.289-2.112
					c-0.2-0.176-0.493-0.234-1.157-0.234h-2.228c-0.608,0-0.926,0.059-1.099,0.234c-0.233,0.231-0.261,0.55-0.321,1.505h-4.193
					C615.974,214.896,616.234,214.022,616.899,213.39z M625.231,224.44v-2.661h-2.92c-1.68,0-2.086,0.115-2.374,0.402
					c-0.289,0.292-0.348,0.639-0.348,1.362c0,0.812,0.059,1.244,0.29,1.477c0.23,0.229,0.548,0.258,1.128,0.258h1.242
					C623.178,225.278,623.785,225.193,625.231,224.44z"/>
				<path fill="#FFFFFF" d="M631.329,228.404v-16.665c0-1.997,0.263-3.04,0.928-3.703c0.666-0.665,1.418-0.983,3.124-0.983h3.646
					v3.354h-2.145c-0.576,0-0.75,0.059-0.923,0.202c-0.146,0.176-0.202,0.489-0.202,1.274v0.638h3.27v3.443h-3.242v12.439H631.329z"
					/>
				<path fill="#FFFFFF" d="M640.698,228.404v-15.912h4.424v2.43c1.651-1.708,2.489-2.458,3.762-2.458h1.707v4.368h-2.054
					c-1.214,0-2.14,0.114-3.415,0.636v10.937H640.698z"/>
				<path fill="#FFFFFF" d="M666.584,212.492v15.912h-4.456v-2.109c-2.024,1.821-2.69,2.139-4.138,2.139h-1.938
					c-1.389,0-2.257-0.288-2.862-0.896c-0.639-0.665-0.927-1.503-0.927-3.82v-11.225h4.456v10.734c0,0.663,0.085,1.041,0.346,1.304
					c0.261,0.258,0.521,0.347,1.302,0.347h1.276c0.75,0,1.418-0.176,2.485-0.639v-11.746H666.584z"/>
				<path fill="#FFFFFF" d="M672.602,210.29h-4.368v-3.237h4.368V210.29z M672.602,228.404h-4.368v-15.912h4.368V228.404z"/>
				<path fill="#FFFFFF" d="M682,224.905h-1.908c-0.727,0-1.016-0.061-1.157-0.175c-0.146-0.174-0.204-0.404-0.204-1.1v-7.666H682
					v-3.473h-3.27v-2.202h-4.456v2.202v3.473v8.854c0,1.62,0.202,2.344,0.724,2.864c0.55,0.551,1.358,0.865,2.865,0.865
					c1.186,0,2.373-0.173,3.066-0.346l1.07-0.278V224.905z"/>
			</g>
		</g>
		<path fill="#FFFFFF" d="M591.435,202.277c-0.152-0.961-0.674-1.236-1.933-1.639c-0.956-0.307-7.36-2.347-7.36-2.347
			s-4.464-1.687-7.772,0.698c-0.445,0.322-0.907,0.688-1.371,1.078c0.39-0.464,0.756-0.926,1.076-1.371
			c2.378-3.313,0.685-7.775,0.685-7.775s-2.051-6.398-2.36-7.356c-0.405-1.257-0.68-1.778-1.642-1.928
			c-0.964-0.152-1.385,0.258-2.156,1.33c-0.588,0.814-4.508,6.275-4.508,6.275s-2.98,3.724-1.737,7.608
			c0.169,0.521,0.374,1.074,0.604,1.637c-0.322-0.515-0.648-1.005-0.974-1.447c-2.417-3.284-7.181-3.055-7.181-3.055
			s-6.721-0.026-7.726-0.027c-1.321-0.005-1.901,0.098-2.344,0.965c-0.441,0.867-0.181,1.397,0.601,2.461
			c0.593,0.812,4.576,6.226,4.576,6.226s2.62,3.987,6.697,4.004c0.548,0.003,1.135-0.022,1.738-0.066
			c-0.586,0.146-1.152,0.307-1.673,0.478c-3.871,1.283-5.122,5.888-5.122,5.888s-2.103,6.384-2.416,7.34
			c-0.41,1.254-0.493,1.837,0.195,2.524c0.688,0.689,1.272,0.604,2.526,0.19c0.955-0.312,7.336-2.428,7.336-2.428
			s4.6-1.261,5.874-5.134c0.173-0.521,0.33-1.086,0.477-1.67c-0.043,0.602-0.066,1.188-0.062,1.735
			c0.021,4.078,4.014,6.691,4.014,6.691s5.421,3.97,6.232,4.563c1.068,0.777,1.596,1.038,2.464,0.596
			c0.866-0.442,0.967-1.022,0.961-2.345c-0.004-1.004-0.044-7.725-0.044-7.725s0.225-4.765-3.064-7.176
			c-0.442-0.324-0.932-0.649-1.445-0.969c0.561,0.226,1.111,0.431,1.635,0.595c3.885,1.239,7.605-1.749,7.605-1.749
			s5.452-3.929,6.267-4.518C591.178,203.663,591.587,203.238,591.435,202.277z M568.285,197.329
			c0.734,0.114,1.098,1.675,0.811,3.482c-0.283,1.809-1.107,3.18-1.842,3.064c-0.732-0.116-1.097-1.675-0.812-3.482
			C566.727,198.586,567.552,197.214,568.285,197.329z M558.897,202.122c0.335-0.662,1.931-0.524,3.561,0.305
			c1.632,0.829,2.683,2.039,2.346,2.7c-0.337,0.66-1.931,0.525-3.562-0.304C559.61,203.994,558.561,202.784,558.897,202.122z
			 M563.847,211.14c-1.293,1.295-2.767,1.919-3.291,1.395c-0.526-0.524,0.097-1.999,1.39-3.294c1.292-1.297,2.766-1.921,3.292-1.396
			C565.763,208.368,565.141,209.844,563.847,211.14z M570.969,214.175c-0.662,0.337-1.873-0.71-2.704-2.339
			c-0.832-1.631-0.971-3.228-0.309-3.564c0.66-0.337,1.869,0.711,2.702,2.341C571.49,212.241,571.631,213.837,570.969,214.175z
			 M572.686,206.625c-1.808,0.289-3.367-0.073-3.484-0.806c-0.116-0.733,1.254-1.562,3.062-1.849
			c1.807-0.287,3.366,0.073,3.482,0.806C575.863,205.509,574.493,206.338,572.686,206.625z"/>
	</g>
</g>
<g>
	<path fill="#ED1C24" d="M329.441,47.276h-3.74l-0.854,2.759h-1.555l3.11-9.469c0.098-0.322,0.182-0.378,0.56-0.378h1.359
		c0.35,0,0.448,0.056,0.56,0.378l3.11,9.469h-1.695L329.441,47.276z M326.107,45.959h2.914l-1.345-4.398h-0.21L326.107,45.959z"/>
	<path fill="#ED1C24" d="M337.645,40.23c1.191,0,1.835,0.196,2.381,0.686c0.645,0.588,0.953,1.807,0.953,4.216
		c0,2.41-0.308,3.628-0.953,4.216c-0.546,0.49-1.19,0.687-2.381,0.687h-4.258V40.23H337.645z M338.835,41.883
		c-0.308-0.28-0.588-0.308-1.191-0.308h-2.689v7.116h2.689c0.603,0,0.911-0.042,1.191-0.308c0.378-0.35,0.546-1.022,0.546-3.236
		C339.382,42.892,339.213,42.233,338.835,41.883z"/>
	<path fill="#ED1C24" d="M348.131,47.276h-3.74l-0.854,2.759h-1.555l3.11-9.469c0.098-0.322,0.182-0.378,0.56-0.378h1.359
		c0.35,0,0.448,0.056,0.56,0.378l3.11,9.469h-1.695L348.131,47.276z M344.797,45.959h2.914l-1.345-4.398h-0.21L344.797,45.959z"/>
	<path fill="#ED1C24" d="M353.645,41.575v2.941h3.782v1.345h-3.782v4.174h-1.569V40.23h6.317v1.345H353.645z"/>
	<path fill="#ED1C24" d="M365.323,46.184c-0.182-0.154-0.462-0.196-1.022-0.196h-2.718v4.048h-1.569V40.23h5.281
		c0.644,0,1.106,0.112,1.4,0.406c0.378,0.378,0.63,0.91,0.63,2.381c0,1.723-0.476,2.213-1.597,2.367v0.028
		c1.037,0.196,1.443,0.448,1.499,1.877c0.056,1.373,0.098,2.213,0.154,2.746h-1.569c-0.098-0.658-0.154-1.583-0.182-2.704
		C365.617,46.548,365.52,46.352,365.323,46.184z M364.833,44.699c0.406,0,0.532-0.07,0.602-0.14
		c0.126-0.126,0.309-0.434,0.309-1.443c0-1.008-0.168-1.303-0.294-1.429c-0.07-0.07-0.21-0.112-0.616-0.112h-3.25v3.124H364.833z"/>
	<path fill="#ED1C24" d="M377.07,45.959c0,2.465-0.21,2.97-0.729,3.488c-0.448,0.448-1.121,0.588-2.409,0.588h-1.429
		c-1.275,0-1.933-0.154-2.354-0.574c-0.518-0.519-0.714-1.009-0.714-3.502V40.23h1.569v6.065c0,1.779,0.14,1.933,0.336,2.129
		c0.154,0.154,0.42,0.224,1.499,0.224h0.883c1.05,0,1.303-0.056,1.471-0.224c0.21-0.21,0.308-0.322,0.308-2.129V40.23h1.569V45.959z
		"/>
	<path fill="#ED1C24" d="M379.446,50.036V40.23h1.569v9.805H379.446z"/>
	<path fill="#ED1C24" d="M387.232,41.575v8.46h-1.569v-8.46h-3.082V40.23h7.732v1.345H387.232z"/>
	<path fill="#ED1C24" d="M396.512,48.691h4.75v1.345h-6.318V40.23h1.569V48.691z"/>
	<path fill="#ED1C24" d="M407.742,40.23c0.924,0,1.275,0.098,1.598,0.392c0.545,0.49,0.881,1.205,0.881,4.51
		c0,3.306-0.336,4.021-0.881,4.511c-0.322,0.294-0.674,0.392-1.598,0.392h-2.801c-0.926,0-1.275-0.098-1.598-0.392
		c-0.547-0.49-0.883-1.205-0.883-4.511c0-3.306,0.336-4.02,0.883-4.51c0.322-0.294,0.672-0.392,1.598-0.392H407.742z
		 M404.408,48.537c0.113,0.098,0.225,0.154,0.701,0.154h2.465c0.477,0.014,0.588-0.056,0.701-0.154
		c0.152-0.14,0.35-0.574,0.35-3.404s-0.197-3.264-0.35-3.404c-0.113-0.098-0.225-0.154-0.701-0.154h-2.465
		c-0.477,0-0.588,0.056-0.701,0.154c-0.154,0.14-0.35,0.574-0.35,3.404S404.254,48.397,404.408,48.537z"/>
	<path fill="#ED1C24" d="M417.332,40.23c0.924,0,1.275,0.098,1.598,0.392c0.545,0.49,0.742,0.953,0.77,2.689h-1.527
		c-0.027-1.163-0.154-1.443-0.307-1.583c-0.113-0.098-0.225-0.154-0.701-0.154h-2.424c-0.477,0-0.588,0.056-0.699,0.154
		c-0.154,0.14-0.352,0.574-0.352,3.404s0.197,3.264,0.352,3.404c0.111,0.098,0.223,0.154,0.699,0.154h2.424
		c0.477,0.014,0.588-0.056,0.701-0.154c0.152-0.14,0.336-0.63,0.336-1.807v-0.49h-2.283v-1.345h3.865v1.247
		c0,2.157-0.309,3.012-0.854,3.502c-0.322,0.294-0.674,0.392-1.598,0.392h-2.76c-0.924,0-1.273-0.098-1.596-0.392
		c-0.547-0.49-0.883-1.205-0.883-4.511c0-3.306,0.336-4.02,0.883-4.51c0.322-0.294,0.672-0.392,1.596-0.392H417.332z"/>
	<path fill="#ED1C24" d="M426.867,40.23c0.924,0,1.273,0.098,1.596,0.392c0.547,0.49,0.883,1.205,0.883,4.51
		c0,3.306-0.336,4.021-0.883,4.511c-0.322,0.294-0.672,0.392-1.596,0.392h-2.803c-0.924,0-1.273-0.098-1.596-0.392
		c-0.547-0.49-0.883-1.205-0.883-4.511c0-3.306,0.336-4.02,0.883-4.51c0.322-0.294,0.672-0.392,1.596-0.392H426.867z
		 M423.533,48.537c0.111,0.098,0.223,0.154,0.699,0.154h2.465c0.477,0.014,0.59-0.056,0.701-0.154c0.154-0.14,0.35-0.574,0.35-3.404
		s-0.195-3.264-0.35-3.404c-0.111-0.098-0.225-0.154-0.701-0.154h-2.465c-0.477,0-0.588,0.056-0.699,0.154
		c-0.154,0.14-0.352,0.574-0.352,3.404S423.379,48.397,423.533,48.537z"/>
	<path fill="#ED1C24" d="M440.979,46.058c-0.309,0.28-0.799,0.364-1.514,0.364h-3.318v3.614h-1.57V40.23h4.889
		c0.715,0,1.205,0.084,1.514,0.364c0.42,0.378,0.799,1.008,0.799,2.773C441.777,45.049,441.385,45.679,440.979,46.058z
		 M439.074,45.077c0.49,0,0.658-0.042,0.756-0.126c0.154-0.126,0.35-0.448,0.35-1.625c0-1.191-0.195-1.499-0.35-1.625
		c-0.098-0.084-0.266-0.126-0.756-0.126h-2.928v3.502H439.074z"/>
	<path fill="#ED1C24" d="M448.174,47.276h-3.738l-0.855,2.759h-1.555l3.109-9.469c0.098-0.322,0.182-0.378,0.561-0.378h1.359
		c0.35,0,0.447,0.056,0.561,0.378l3.109,9.469h-1.695L448.174,47.276z M444.842,45.959h2.912l-1.344-4.398h-0.211L444.842,45.959z"
		/>
	<path fill="#ED1C24" d="M458.633,49.644c-0.322,0.294-0.672,0.392-1.596,0.392h-2.719c-0.924,0-1.273-0.098-1.596-0.392
		c-0.547-0.49-0.883-1.205-0.883-4.511c0-3.306,0.336-4.02,0.883-4.51c0.322-0.294,0.672-0.392,1.596-0.392h2.719
		c0.924,0,1.273,0.098,1.596,0.392c0.547,0.49,0.799,1.135,0.826,2.83h-1.568c-0.043-1.233-0.168-1.583-0.322-1.723
		c-0.111-0.098-0.225-0.154-0.701-0.154h-2.381c-0.477,0-0.588,0.056-0.699,0.154c-0.154,0.14-0.352,0.574-0.352,3.404
		s0.197,3.264,0.352,3.404c0.111,0.098,0.223,0.154,0.699,0.154h2.381c0.477,0.014,0.59-0.056,0.701-0.154
		c0.154-0.14,0.279-0.42,0.322-1.877h1.582C459.404,48.607,459.18,49.153,458.633,49.644z"/>
	<path fill="#ED1C24" d="M468.797,40.23l-3.781,4.623l3.865,5.183h-1.863l-3.234-4.413h-0.869v4.413h-1.568V40.23h1.568v4.048h0.84
		l3.223-4.048H468.797z"/>
</g>
</svg>
