<?xml version="1.0" encoding="utf-8"?>
<!-- Generator: Adobe Illustrator 15.1.0, SVG Export Plug-In . SVG Version: 6.00 Build 0)  -->
<!DOCTYPE svg PUBLIC "-//W3C//DTD SVG 1.1//EN" "http://www.w3.org/Graphics/SVG/1.1/DTD/svg11.dtd">
<svg version="1.1" id="Layer_1" xmlns="http://www.w3.org/2000/svg" xmlns:xlink="http://www.w3.org/1999/xlink" x="0px" y="0px"
	 width="612px" height="792px" viewBox="0 0 612 792" enable-background="new 0 0 612 792" xml:space="preserve">
<g>
	<rect x="117.5" y="451.369" width="377" height="112"/>
	<g>
		<g>
			<g>
				<g>
					<g>
						<path fill="#FFFFFF" d="M207.109,513.344c0.256-0.254,0.556-0.359,1.133-0.359h2.326c0.648,0,1.03,0.115,1.263,0.359
							c0.289,0.287,0.383,0.625,0.383,1.7v4.306h-1.771v-0.729c-0.765,0.625-1.041,0.74-1.608,0.74h-0.869
							c-0.567,0-0.867-0.068-1.123-0.322c-0.22-0.222-0.369-0.592-0.369-1.424c0-0.787,0.115-1.274,0.395-1.553
							c0.288-0.289,0.658-0.428,1.803-0.428c0.614,0,1.252,0.07,1.772,0.186v-0.566c0-0.627-0.035-0.754-0.116-0.846
							c-0.081-0.07-0.197-0.094-0.463-0.094h-0.891c-0.244,0-0.37,0.023-0.44,0.094c-0.092,0.092-0.104,0.219-0.127,0.602h-1.678
							C206.739,513.945,206.842,513.597,207.109,513.344z M210.442,517.765v-1.065h-1.169c-0.671,0-0.833,0.047-0.95,0.162
							c-0.114,0.115-0.138,0.255-0.138,0.543c0,0.326,0.023,0.499,0.115,0.592c0.093,0.092,0.22,0.104,0.451,0.104h0.497
							C209.621,518.1,209.863,518.066,210.442,517.765z"/>
						<path fill="#FFFFFF" d="M216.99,519.35v-0.82c-0.799,0.693-1.075,0.832-1.598,0.832h-0.671c-0.673,0-1.03-0.115-1.308-0.393
							c-0.381-0.383-0.532-0.938-0.532-2.802c0-1.875,0.185-2.407,0.579-2.801c0.277-0.276,0.646-0.393,1.284-0.393h0.693
							c0.532,0,0.823,0.116,1.552,0.729v-2.894h1.772v8.541H216.99z M216.99,517.672v-3.031c-0.37-0.174-0.638-0.255-0.926-0.255
							h-0.636c-0.325,0-0.478,0.046-0.58,0.149c-0.162,0.15-0.208,0.418-0.208,1.632s0.046,1.472,0.208,1.634
							c0.103,0.103,0.255,0.138,0.58,0.138h0.577C216.308,517.938,216.597,517.856,216.99,517.672z"/>
						<path fill="#FFFFFF" d="M220.066,513.344c0.255-0.254,0.556-0.359,1.134-0.359h2.327c0.647,0,1.028,0.115,1.262,0.359
							c0.29,0.287,0.381,0.625,0.381,1.7v4.306h-1.771v-0.729c-0.763,0.625-1.042,0.74-1.609,0.74h-0.867
							c-0.566,0-0.869-0.068-1.122-0.322c-0.221-0.222-0.37-0.592-0.37-1.424c0-0.787,0.114-1.274,0.394-1.553
							c0.288-0.289,0.658-0.428,1.805-0.428c0.614,0,1.249,0.07,1.771,0.186v-0.566c0-0.627-0.034-0.754-0.116-0.846
							c-0.079-0.07-0.196-0.094-0.462-0.094h-0.892c-0.242,0-0.37,0.023-0.439,0.094c-0.094,0.092-0.104,0.219-0.129,0.602h-1.677
							C219.696,513.945,219.801,513.597,220.066,513.344z M223.399,517.765v-1.065h-1.168c-0.672,0-0.835,0.047-0.949,0.162
							c-0.115,0.115-0.139,0.255-0.139,0.543c0,0.326,0.023,0.499,0.115,0.592c0.092,0.092,0.22,0.104,0.452,0.104h0.497
							C222.578,518.1,222.821,518.066,223.399,517.765z"/>
						<path fill="#FFFFFF" d="M225.838,519.35v-6.667c0-0.798,0.105-1.215,0.372-1.481c0.266-0.266,0.566-0.393,1.25-0.393h1.458
							v1.342h-0.858c-0.229,0-0.3,0.023-0.369,0.081c-0.059,0.07-0.08,0.196-0.08,0.51v0.255h1.308v1.378h-1.296v4.976H225.838z"/>
						<path fill="#FFFFFF" d="M229.586,519.35v-6.365h1.771v0.973c0.661-0.684,0.996-0.983,1.505-0.983h0.682v1.747h-0.82
							c-0.486,0-0.856,0.047-1.366,0.255v4.374H229.586z"/>
						<path fill="#FFFFFF" d="M239.941,512.984v6.365h-1.783v-0.844c-0.809,0.729-1.076,0.855-1.655,0.855h-0.775
							c-0.556,0-0.902-0.115-1.144-0.358c-0.256-0.266-0.372-0.601-0.372-1.528v-4.49h1.783v4.294c0,0.267,0.033,0.417,0.138,0.522
							c0.104,0.103,0.209,0.138,0.521,0.138h0.511c0.3,0,0.567-0.069,0.994-0.255v-4.699H239.941z"/>
						<path fill="#FFFFFF" d="M242.349,512.104h-1.748v-1.295h1.748V512.104z M242.349,519.35h-1.748v-6.365h1.748V519.35z"/>
						<path fill="#FFFFFF" d="M246.108,517.95h-0.765c-0.29,0-0.405-0.024-0.463-0.07c-0.059-0.069-0.081-0.161-0.081-0.44v-3.065
							h1.309v-1.39H244.8v-0.881h-1.783v0.881v1.39v3.542c0,0.646,0.082,0.937,0.291,1.146c0.219,0.22,0.542,0.347,1.146,0.347
							c0.474,0,0.949-0.07,1.226-0.139l0.43-0.111V517.95z"/>
					</g>
				</g>
			</g>
			<path fill="#FFFFFF" d="M209.883,508.898c-0.061-0.385-0.271-0.494-0.774-0.656c-0.382-0.121-2.942-0.938-2.942-0.938
				s-1.785-0.676-3.109,0.279c-0.179,0.129-0.364,0.275-0.549,0.432c0.156-0.186,0.302-0.371,0.431-0.549
				c0.95-1.326,0.273-3.111,0.273-3.111s-0.819-2.559-0.944-2.941c-0.163-0.504-0.272-0.713-0.657-0.771
				c-0.386-0.061-0.556,0.104-0.862,0.531c-0.236,0.326-1.805,2.51-1.805,2.51s-1.19,1.49-0.691,3.045
				c0.066,0.209,0.147,0.43,0.239,0.654c-0.13-0.207-0.259-0.402-0.387-0.578c-0.97-1.314-2.874-1.223-2.874-1.223
				s-2.688-0.01-3.092-0.012c-0.529-0.002-0.761,0.039-0.937,0.387c-0.178,0.348-0.072,0.559,0.241,0.984
				c0.236,0.324,1.829,2.49,1.829,2.49s1.047,1.594,2.681,1.602c0.217,0.002,0.453-0.01,0.694-0.027
				c-0.235,0.059-0.461,0.123-0.669,0.191c-1.549,0.514-2.051,2.357-2.051,2.357s-0.841,2.551-0.965,2.936
				c-0.162,0.5-0.197,0.734,0.078,1.008c0.274,0.275,0.509,0.242,1.01,0.078c0.381-0.127,2.936-0.973,2.936-0.973
				s1.838-0.504,2.349-2.053c0.069-0.209,0.132-0.436,0.192-0.668c-0.018,0.24-0.027,0.475-0.026,0.693
				c0.009,1.633,1.607,2.678,1.607,2.678s2.169,1.588,2.491,1.824c0.427,0.311,0.638,0.416,0.985,0.238
				c0.347-0.176,0.388-0.408,0.385-0.938c-0.002-0.4-0.017-3.09-0.017-3.09s0.09-1.906-1.227-2.871
				c-0.178-0.129-0.374-0.26-0.579-0.387c0.225,0.09,0.445,0.172,0.654,0.236c1.556,0.496,3.043-0.699,3.043-0.699
				s2.179-1.57,2.507-1.807C209.78,509.453,209.941,509.283,209.883,508.898z M196.496,508.705c0.167-0.328,0.943-0.262,1.737,0.143
				c0.794,0.402,1.302,0.994,1.135,1.32c-0.168,0.326-0.942,0.262-1.735-0.141C196.839,509.623,196.329,509.031,196.496,508.705z
				 M198.839,512.666c-0.63,0.629-1.35,0.93-1.607,0.672c-0.261-0.258,0.042-0.979,0.67-1.607c0.632-0.631,1.351-0.932,1.609-0.672
				C199.77,511.316,199.466,512.035,198.839,512.666z M200.143,509.754c-0.361-0.059-0.541-0.816-0.402-1.695
				c0.138-0.879,0.544-1.547,0.907-1.49c0.36,0.059,0.54,0.818,0.398,1.697C200.907,509.145,200.505,509.811,200.143,509.754z
				 M201.865,514.072c-0.328,0.166-0.917-0.342-1.323-1.137c-0.402-0.793-0.468-1.568-0.141-1.736
				c0.325-0.166,0.917,0.342,1.319,1.137C202.127,513.129,202.191,513.906,201.865,514.072z M202.506,510.797
				c-0.88,0.139-1.637-0.039-1.692-0.4c-0.06-0.361,0.606-0.766,1.488-0.904c0.878-0.141,1.638,0.037,1.694,0.4
				C204.054,510.254,203.385,510.656,202.506,510.797z"/>
		</g>
		<g>
			<g>
				<g>
					<path fill="#FFFFFF" d="M381.884,513.344c0.256-0.255,0.556-0.359,1.134-0.359h2.327c0.647,0,1.029,0.114,1.262,0.359
						c0.289,0.288,0.382,0.624,0.382,1.701v4.305h-1.771v-0.729c-0.764,0.625-1.041,0.74-1.608,0.74h-0.868
						c-0.567,0-0.868-0.069-1.123-0.323c-0.22-0.221-0.37-0.59-0.37-1.424c0-0.787,0.115-1.273,0.395-1.552
						c0.288-0.289,0.658-0.429,1.805-0.429c0.613,0,1.25,0.071,1.771,0.187v-0.567c0-0.626-0.034-0.753-0.115-0.845
						c-0.082-0.07-0.197-0.094-0.463-0.094h-0.891c-0.244,0-0.372,0.023-0.44,0.094c-0.093,0.092-0.104,0.219-0.128,0.602h-1.677
						C381.513,513.945,381.617,513.598,381.884,513.344z M385.217,517.764v-1.064h-1.168c-0.673,0-0.834,0.046-0.949,0.162
						c-0.116,0.116-0.14,0.255-0.14,0.544c0,0.324,0.023,0.498,0.116,0.591c0.093,0.092,0.22,0.104,0.451,0.104h0.498
						C384.396,518.1,384.639,518.065,385.217,517.764z"/>
					<path fill="#FFFFFF" d="M391.766,519.35v-0.821c-0.798,0.694-1.076,0.833-1.599,0.833h-0.67c-0.672,0-1.03-0.115-1.308-0.393
						c-0.382-0.382-0.533-0.939-0.533-2.803c0-1.874,0.185-2.406,0.579-2.801c0.278-0.276,0.647-0.393,1.285-0.393h0.693
						c0.533,0,0.822,0.116,1.552,0.729v-2.894h1.771v8.541H391.766z M391.766,517.672v-3.032c-0.371-0.174-0.637-0.255-0.926-0.255
						h-0.637c-0.324,0-0.476,0.047-0.579,0.15c-0.162,0.15-0.208,0.417-0.208,1.631c0,1.216,0.046,1.472,0.208,1.634
						c0.104,0.104,0.255,0.139,0.579,0.139h0.578C391.083,517.938,391.372,517.856,391.766,517.672z"/>
					<path fill="#FFFFFF" d="M394.842,513.344c0.255-0.255,0.556-0.359,1.134-0.359h2.327c0.647,0,1.03,0.114,1.262,0.359
						c0.289,0.288,0.382,0.624,0.382,1.701v4.305h-1.771v-0.729c-0.765,0.625-1.042,0.74-1.609,0.74h-0.867
						c-0.568,0-0.869-0.069-1.123-0.323c-0.221-0.221-0.371-0.59-0.371-1.424c0-0.787,0.116-1.273,0.394-1.552
						c0.29-0.289,0.66-0.429,1.806-0.429c0.613,0,1.251,0.071,1.771,0.187v-0.567c0-0.626-0.035-0.753-0.116-0.845
						c-0.08-0.07-0.197-0.094-0.463-0.094h-0.891c-0.244,0-0.371,0.023-0.44,0.094c-0.093,0.092-0.104,0.219-0.128,0.602h-1.678
						C394.472,513.945,394.576,513.598,394.842,513.344z M398.176,517.764v-1.064h-1.169c-0.672,0-0.834,0.046-0.949,0.162
						s-0.139,0.255-0.139,0.544c0,0.324,0.023,0.498,0.115,0.591c0.093,0.092,0.22,0.104,0.451,0.104h0.497
						C397.354,518.1,397.597,518.065,398.176,517.764z"/>
					<path fill="#FFFFFF" d="M400.614,519.35v-6.666c0-0.799,0.104-1.216,0.371-1.481c0.267-0.267,0.566-0.394,1.25-0.394h1.458
						v1.342h-0.856c-0.231,0-0.302,0.023-0.37,0.082c-0.059,0.068-0.082,0.195-0.082,0.509v0.255h1.309v1.377h-1.297v4.977H400.614z
						"/>
					<path fill="#FFFFFF" d="M404.362,519.35v-6.365h1.77v0.972c0.66-0.683,0.996-0.983,1.505-0.983h0.684v1.748h-0.822
						c-0.486,0-0.856,0.046-1.366,0.254v4.375H404.362z"/>
					<path fill="#FFFFFF" d="M414.717,512.984v6.365h-1.782v-0.844c-0.81,0.729-1.076,0.855-1.655,0.855h-0.775
						c-0.556,0-0.903-0.115-1.146-0.359c-0.255-0.266-0.37-0.601-0.37-1.526v-4.491h1.782v4.294c0,0.266,0.034,0.417,0.138,0.521
						c0.104,0.104,0.209,0.139,0.521,0.139h0.51c0.301,0,0.567-0.069,0.995-0.255v-4.699H414.717z"/>
					<path fill="#FFFFFF" d="M417.125,512.104h-1.748v-1.296h1.748V512.104z M417.125,519.35h-1.748v-6.365h1.748V519.35z"/>
					<path fill="#FFFFFF" d="M420.884,517.95h-0.765c-0.29,0-0.405-0.024-0.462-0.07c-0.059-0.069-0.082-0.161-0.082-0.44v-3.066
						h1.309v-1.389h-1.309v-0.88h-1.782v0.88v1.389v3.542c0,0.648,0.081,0.937,0.29,1.146c0.22,0.22,0.543,0.348,1.146,0.348
						c0.475,0,0.949-0.07,1.227-0.14l0.429-0.11V517.95z"/>
				</g>
			</g>
			<path fill="#FFFFFF" d="M413.111,500.773c-0.061-0.383-0.271-0.492-0.774-0.654c-0.382-0.123-2.942-0.939-2.942-0.939
				s-1.785-0.674-3.109,0.279c-0.179,0.129-0.364,0.275-0.549,0.432c0.156-0.186,0.302-0.371,0.431-0.549
				c0.95-1.326,0.273-3.109,0.273-3.109s-0.819-2.559-0.944-2.943c-0.163-0.502-0.272-0.711-0.657-0.77
				c-0.386-0.062-0.556,0.102-0.862,0.531c-0.236,0.326-1.805,2.51-1.805,2.51s-1.19,1.49-0.691,3.043
				c0.066,0.209,0.147,0.43,0.239,0.654c-0.13-0.205-0.259-0.4-0.387-0.578c-0.97-1.312-2.874-1.221-2.874-1.221
				s-2.688-0.012-3.092-0.012c-0.529-0.004-0.761,0.039-0.937,0.387c-0.178,0.346-0.072,0.557,0.241,0.984
				c0.236,0.324,1.829,2.49,1.829,2.49s1.047,1.594,2.681,1.602c0.217,0.002,0.453-0.01,0.694-0.027
				c-0.235,0.059-0.461,0.123-0.669,0.191c-1.549,0.514-2.051,2.357-2.051,2.357s-0.841,2.55-0.965,2.935
				c-0.162,0.5-0.197,0.734,0.078,1.008c0.274,0.275,0.509,0.242,1.01,0.078c0.381-0.127,2.936-0.973,2.936-0.973
				s1.838-0.504,2.349-2.052c0.069-0.209,0.132-0.436,0.192-0.668c-0.018,0.24-0.027,0.475-0.026,0.693
				c0.009,1.632,1.607,2.677,1.607,2.677s2.169,1.588,2.491,1.824c0.427,0.311,0.638,0.416,0.985,0.238
				c0.347-0.176,0.388-0.408,0.385-0.938c-0.002-0.4-0.017-3.089-0.017-3.089s0.09-1.906-1.227-2.871
				c-0.178-0.129-0.374-0.26-0.579-0.387c0.225,0.09,0.445,0.172,0.654,0.236c1.556,0.496,3.043-0.699,3.043-0.699
				s2.179-1.572,2.507-1.807C413.009,501.328,413.17,501.158,413.111,500.773z M399.725,500.58c0.167-0.326,0.943-0.262,1.737,0.143
				s1.302,0.994,1.135,1.322c-0.168,0.326-0.942,0.262-1.735-0.143C400.067,501.498,399.558,500.906,399.725,500.58z
				 M402.067,504.543c-0.63,0.629-1.35,0.93-1.607,0.672c-0.261-0.258,0.042-0.979,0.67-1.607c0.632-0.631,1.351-0.932,1.609-0.672
				C402.998,503.193,402.694,503.912,402.067,504.543z M403.371,501.629c-0.361-0.057-0.541-0.816-0.402-1.695
				c0.138-0.879,0.544-1.547,0.907-1.488c0.36,0.057,0.54,0.816,0.398,1.695C404.136,501.02,403.733,501.688,403.371,501.629z
				 M405.094,505.949c-0.328,0.166-0.917-0.342-1.323-1.137c-0.402-0.793-0.468-1.568-0.141-1.736
				c0.325-0.166,0.917,0.342,1.319,1.137C405.355,505.006,405.42,505.783,405.094,505.949z M405.734,502.674
				c-0.88,0.139-1.637-0.039-1.692-0.402c-0.06-0.361,0.606-0.766,1.488-0.904c0.878-0.141,1.638,0.037,1.694,0.4
				C407.282,502.129,406.613,502.533,405.734,502.674z"/>
		</g>
	</g>
</g>
<g>
	<g>
		<g>
			<g>
				<g>
					<path fill="#939598" d="M207.109,398.696c0.256-0.254,0.556-0.359,1.133-0.359h2.326c0.648,0,1.03,0.115,1.263,0.359
						c0.289,0.287,0.383,0.625,0.383,1.7v4.306h-1.771v-0.729c-0.765,0.625-1.041,0.74-1.608,0.74h-0.869
						c-0.567,0-0.867-0.068-1.123-0.322c-0.22-0.222-0.369-0.592-0.369-1.424c0-0.787,0.115-1.274,0.395-1.553
						c0.288-0.289,0.658-0.428,1.803-0.428c0.614,0,1.252,0.07,1.772,0.186v-0.566c0-0.627-0.035-0.754-0.116-0.846
						c-0.081-0.07-0.197-0.094-0.463-0.094h-0.891c-0.244,0-0.37,0.023-0.44,0.094c-0.092,0.092-0.104,0.219-0.127,0.602h-1.678
						C206.739,399.298,206.842,398.949,207.109,398.696z M210.442,403.117v-1.065h-1.169c-0.671,0-0.833,0.047-0.95,0.162
						c-0.114,0.115-0.138,0.255-0.138,0.543c0,0.326,0.023,0.499,0.115,0.592c0.093,0.092,0.22,0.104,0.451,0.104h0.497
						C209.621,403.452,209.863,403.419,210.442,403.117z"/>
					<path fill="#939598" d="M216.99,404.702v-0.82c-0.799,0.693-1.075,0.832-1.598,0.832h-0.671c-0.673,0-1.03-0.115-1.308-0.393
						c-0.381-0.383-0.532-0.938-0.532-2.802c0-1.875,0.185-2.407,0.579-2.801c0.277-0.276,0.646-0.393,1.284-0.393h0.693
						c0.532,0,0.823,0.116,1.552,0.729v-2.894h1.772v8.541H216.99z M216.99,403.024v-3.031c-0.37-0.174-0.638-0.255-0.926-0.255
						h-0.636c-0.325,0-0.478,0.046-0.58,0.149c-0.162,0.15-0.208,0.418-0.208,1.632s0.046,1.472,0.208,1.634
						c0.103,0.103,0.255,0.138,0.58,0.138h0.577C216.308,403.291,216.597,403.209,216.99,403.024z"/>
					<path fill="#939598" d="M220.066,398.696c0.255-0.254,0.556-0.359,1.134-0.359h2.327c0.647,0,1.028,0.115,1.262,0.359
						c0.29,0.287,0.381,0.625,0.381,1.7v4.306h-1.771v-0.729c-0.763,0.625-1.042,0.74-1.609,0.74h-0.867
						c-0.566,0-0.869-0.068-1.122-0.322c-0.221-0.222-0.37-0.592-0.37-1.424c0-0.787,0.114-1.274,0.394-1.553
						c0.288-0.289,0.658-0.428,1.805-0.428c0.614,0,1.249,0.07,1.771,0.186v-0.566c0-0.627-0.034-0.754-0.116-0.846
						c-0.079-0.07-0.196-0.094-0.462-0.094h-0.892c-0.242,0-0.37,0.023-0.439,0.094c-0.094,0.092-0.104,0.219-0.129,0.602h-1.677
						C219.696,399.298,219.801,398.949,220.066,398.696z M223.399,403.117v-1.065h-1.168c-0.672,0-0.835,0.047-0.949,0.162
						c-0.115,0.115-0.139,0.255-0.139,0.543c0,0.326,0.023,0.499,0.115,0.592c0.092,0.092,0.22,0.104,0.452,0.104h0.497
						C222.578,403.452,222.821,403.419,223.399,403.117z"/>
					<path fill="#939598" d="M225.838,404.702v-6.667c0-0.798,0.105-1.215,0.372-1.481c0.266-0.266,0.566-0.393,1.25-0.393h1.458
						v1.342h-0.858c-0.229,0-0.3,0.023-0.369,0.081c-0.059,0.07-0.08,0.196-0.08,0.51v0.255h1.308v1.378h-1.296v4.976H225.838z"/>
					<path fill="#939598" d="M229.586,404.702v-6.365h1.771v0.973c0.661-0.684,0.996-0.983,1.505-0.983h0.682v1.747h-0.82
						c-0.486,0-0.856,0.047-1.366,0.255v4.374H229.586z"/>
					<path fill="#939598" d="M239.941,398.337v6.365h-1.783v-0.844c-0.809,0.729-1.076,0.855-1.655,0.855h-0.775
						c-0.556,0-0.902-0.115-1.144-0.358c-0.256-0.266-0.372-0.601-0.372-1.528v-4.49h1.783v4.294c0,0.267,0.033,0.417,0.138,0.522
						c0.104,0.103,0.209,0.138,0.521,0.138h0.511c0.3,0,0.567-0.069,0.994-0.255v-4.699H239.941z"/>
					<path fill="#939598" d="M242.349,397.456h-1.748v-1.295h1.748V397.456z M242.349,404.702h-1.748v-6.365h1.748V404.702z"/>
					<path fill="#939598" d="M246.108,403.303h-0.765c-0.29,0-0.405-0.024-0.463-0.07c-0.059-0.069-0.081-0.161-0.081-0.44v-3.065
						h1.309v-1.39H244.8v-0.881h-1.783v0.881v1.39v3.542c0,0.646,0.082,0.937,0.291,1.146c0.219,0.22,0.542,0.347,1.146,0.347
						c0.474,0,0.949-0.07,1.226-0.139l0.43-0.111V403.303z"/>
				</g>
			</g>
		</g>
		<path fill="#939598" d="M209.883,394.251c-0.061-0.385-0.271-0.494-0.774-0.656c-0.382-0.121-2.942-0.938-2.942-0.938
			s-1.785-0.676-3.109,0.279c-0.179,0.129-0.364,0.275-0.549,0.432c0.156-0.186,0.302-0.371,0.431-0.549
			c0.95-1.326,0.273-3.111,0.273-3.111s-0.819-2.559-0.944-2.941c-0.163-0.504-0.272-0.713-0.657-0.771
			c-0.386-0.061-0.556,0.104-0.862,0.531c-0.236,0.326-1.805,2.51-1.805,2.51s-1.19,1.49-0.691,3.045
			c0.066,0.209,0.147,0.43,0.239,0.654c-0.13-0.207-0.259-0.402-0.387-0.578c-0.97-1.314-2.874-1.223-2.874-1.223
			s-2.688-0.01-3.092-0.012c-0.529-0.002-0.761,0.039-0.937,0.387c-0.178,0.348-0.072,0.559,0.241,0.984
			c0.236,0.324,1.829,2.49,1.829,2.49s1.047,1.594,2.681,1.602c0.217,0.002,0.453-0.01,0.694-0.027
			c-0.235,0.059-0.461,0.123-0.669,0.191c-1.549,0.514-2.051,2.357-2.051,2.357s-0.841,2.551-0.965,2.936
			c-0.162,0.5-0.197,0.734,0.078,1.008c0.274,0.275,0.509,0.242,1.01,0.078c0.381-0.127,2.936-0.973,2.936-0.973
			s1.838-0.504,2.349-2.053c0.069-0.209,0.132-0.436,0.192-0.668c-0.018,0.24-0.027,0.475-0.026,0.693
			c0.009,1.633,1.607,2.678,1.607,2.678s2.169,1.588,2.491,1.824c0.427,0.311,0.638,0.416,0.985,0.238
			c0.347-0.176,0.388-0.408,0.385-0.938c-0.002-0.4-0.017-3.09-0.017-3.09s0.09-1.906-1.227-2.871
			c-0.178-0.129-0.374-0.26-0.579-0.387c0.225,0.09,0.445,0.172,0.654,0.236c1.556,0.496,3.043-0.699,3.043-0.699
			s2.179-1.57,2.507-1.807C209.78,394.806,209.941,394.636,209.883,394.251z M196.496,394.058c0.167-0.328,0.943-0.262,1.737,0.143
			c0.794,0.402,1.302,0.994,1.135,1.32c-0.168,0.326-0.942,0.262-1.735-0.141C196.839,394.976,196.329,394.384,196.496,394.058z
			 M198.839,398.019c-0.63,0.629-1.35,0.93-1.607,0.672c-0.261-0.258,0.042-0.979,0.67-1.607c0.632-0.631,1.351-0.932,1.609-0.672
			C199.77,396.669,199.466,397.388,198.839,398.019z M200.143,395.106c-0.361-0.059-0.541-0.816-0.402-1.695
			c0.138-0.879,0.544-1.547,0.907-1.49c0.36,0.059,0.54,0.818,0.398,1.697C200.907,394.497,200.505,395.163,200.143,395.106z
			 M201.865,399.425c-0.328,0.166-0.917-0.342-1.323-1.137c-0.402-0.793-0.468-1.568-0.141-1.736
			c0.325-0.166,0.917,0.342,1.319,1.137C202.127,398.481,202.191,399.259,201.865,399.425z M202.506,396.149
			c-0.88,0.139-1.637-0.039-1.692-0.4c-0.06-0.361,0.606-0.766,1.488-0.904c0.878-0.141,1.638,0.037,1.694,0.4
			C204.054,395.606,203.385,396.009,202.506,396.149z"/>
	</g>
	<g>
		<g>
			<g>
				<path fill="#939598" d="M381.884,398.696c0.256-0.255,0.556-0.359,1.134-0.359h2.327c0.647,0,1.029,0.114,1.262,0.359
					c0.289,0.288,0.382,0.624,0.382,1.701v4.305h-1.771v-0.729c-0.764,0.625-1.041,0.74-1.608,0.74h-0.868
					c-0.567,0-0.868-0.069-1.123-0.323c-0.22-0.221-0.37-0.59-0.37-1.424c0-0.787,0.115-1.273,0.395-1.552
					c0.288-0.289,0.658-0.429,1.805-0.429c0.613,0,1.25,0.071,1.771,0.187v-0.567c0-0.626-0.034-0.753-0.115-0.845
					c-0.082-0.07-0.197-0.094-0.463-0.094h-0.891c-0.244,0-0.372,0.023-0.44,0.094c-0.093,0.092-0.104,0.219-0.128,0.602h-1.677
					C381.513,399.298,381.617,398.95,381.884,398.696z M385.217,403.116v-1.064h-1.168c-0.673,0-0.834,0.046-0.949,0.162
					c-0.116,0.116-0.14,0.255-0.14,0.544c0,0.324,0.023,0.498,0.116,0.591c0.093,0.092,0.22,0.104,0.451,0.104h0.498
					C384.396,403.452,384.639,403.418,385.217,403.116z"/>
				<path fill="#939598" d="M391.766,404.702v-0.821c-0.798,0.694-1.076,0.833-1.599,0.833h-0.67c-0.672,0-1.03-0.115-1.308-0.393
					c-0.382-0.382-0.533-0.939-0.533-2.803c0-1.874,0.185-2.406,0.579-2.801c0.278-0.276,0.647-0.393,1.285-0.393h0.693
					c0.533,0,0.822,0.116,1.552,0.729v-2.894h1.771v8.541H391.766z M391.766,403.024v-3.032c-0.371-0.174-0.637-0.255-0.926-0.255
					h-0.637c-0.324,0-0.476,0.047-0.579,0.15c-0.162,0.15-0.208,0.417-0.208,1.631c0,1.216,0.046,1.472,0.208,1.634
					c0.104,0.104,0.255,0.139,0.579,0.139h0.578C391.083,403.291,391.372,403.209,391.766,403.024z"/>
				<path fill="#939598" d="M394.842,398.696c0.255-0.255,0.556-0.359,1.134-0.359h2.327c0.647,0,1.03,0.114,1.262,0.359
					c0.289,0.288,0.382,0.624,0.382,1.701v4.305h-1.771v-0.729c-0.765,0.625-1.042,0.74-1.609,0.74h-0.867
					c-0.568,0-0.869-0.069-1.123-0.323c-0.221-0.221-0.371-0.59-0.371-1.424c0-0.787,0.116-1.273,0.394-1.552
					c0.29-0.289,0.66-0.429,1.806-0.429c0.613,0,1.251,0.071,1.771,0.187v-0.567c0-0.626-0.035-0.753-0.116-0.845
					c-0.08-0.07-0.197-0.094-0.463-0.094h-0.891c-0.244,0-0.371,0.023-0.44,0.094c-0.093,0.092-0.104,0.219-0.128,0.602h-1.678
					C394.472,399.298,394.576,398.95,394.842,398.696z M398.176,403.116v-1.064h-1.169c-0.672,0-0.834,0.046-0.949,0.162
					s-0.139,0.255-0.139,0.544c0,0.324,0.023,0.498,0.115,0.591c0.093,0.092,0.22,0.104,0.451,0.104h0.497
					C397.354,403.452,397.597,403.418,398.176,403.116z"/>
				<path fill="#939598" d="M400.614,404.702v-6.666c0-0.799,0.104-1.216,0.371-1.481c0.267-0.267,0.566-0.394,1.25-0.394h1.458
					v1.342h-0.856c-0.231,0-0.302,0.023-0.37,0.082c-0.059,0.068-0.082,0.195-0.082,0.509v0.255h1.309v1.377h-1.297v4.977H400.614z"
					/>
				<path fill="#939598" d="M404.362,404.702v-6.365h1.77v0.972c0.66-0.683,0.996-0.983,1.505-0.983h0.684v1.748h-0.822
					c-0.486,0-0.856,0.046-1.366,0.254v4.375H404.362z"/>
				<path fill="#939598" d="M414.717,398.337v6.365h-1.782v-0.844c-0.81,0.729-1.076,0.855-1.655,0.855h-0.775
					c-0.556,0-0.903-0.115-1.146-0.359c-0.255-0.266-0.37-0.601-0.37-1.526v-4.491h1.782v4.294c0,0.266,0.034,0.417,0.138,0.521
					c0.104,0.104,0.209,0.139,0.521,0.139h0.51c0.301,0,0.567-0.069,0.995-0.255v-4.699H414.717z"/>
				<path fill="#939598" d="M417.125,397.457h-1.748v-1.296h1.748V397.457z M417.125,404.702h-1.748v-6.365h1.748V404.702z"/>
				<path fill="#939598" d="M420.884,403.303h-0.765c-0.29,0-0.405-0.024-0.462-0.07c-0.059-0.069-0.082-0.161-0.082-0.44v-3.066
					h1.309v-1.389h-1.309v-0.88h-1.782v0.88v1.389v3.542c0,0.648,0.081,0.937,0.29,1.146c0.22,0.22,0.543,0.348,1.146,0.348
					c0.475,0,0.949-0.07,1.227-0.14l0.429-0.11V403.303z"/>
			</g>
		</g>
		<path fill="#939598" d="M413.111,386.126c-0.061-0.383-0.271-0.492-0.774-0.654c-0.382-0.123-2.942-0.939-2.942-0.939
			s-1.785-0.674-3.109,0.279c-0.179,0.129-0.364,0.275-0.549,0.432c0.156-0.186,0.302-0.371,0.431-0.549
			c0.95-1.326,0.273-3.109,0.273-3.109s-0.819-2.559-0.944-2.943c-0.163-0.502-0.272-0.711-0.657-0.77
			c-0.386-0.062-0.556,0.102-0.862,0.531c-0.236,0.326-1.805,2.51-1.805,2.51s-1.19,1.49-0.691,3.043
			c0.066,0.209,0.147,0.43,0.239,0.654c-0.13-0.205-0.259-0.4-0.387-0.578c-0.97-1.312-2.874-1.221-2.874-1.221
			s-2.688-0.012-3.092-0.012c-0.529-0.004-0.761,0.039-0.937,0.387c-0.178,0.346-0.072,0.557,0.241,0.984
			c0.236,0.324,1.829,2.49,1.829,2.49s1.047,1.594,2.681,1.602c0.217,0.002,0.453-0.01,0.694-0.027
			c-0.235,0.059-0.461,0.123-0.669,0.191c-1.549,0.514-2.051,2.357-2.051,2.357s-0.841,2.55-0.965,2.935
			c-0.162,0.5-0.197,0.734,0.078,1.008c0.274,0.275,0.509,0.242,1.01,0.078c0.381-0.127,2.936-0.973,2.936-0.973
			s1.838-0.504,2.349-2.052c0.069-0.209,0.132-0.436,0.192-0.668c-0.018,0.24-0.027,0.475-0.026,0.693
			c0.009,1.632,1.607,2.677,1.607,2.677s2.169,1.588,2.491,1.824c0.427,0.311,0.638,0.416,0.985,0.238
			c0.347-0.176,0.388-0.408,0.385-0.938c-0.002-0.4-0.017-3.089-0.017-3.089s0.09-1.906-1.227-2.871
			c-0.178-0.129-0.374-0.26-0.579-0.387c0.225,0.09,0.445,0.172,0.654,0.236c1.556,0.496,3.043-0.699,3.043-0.699
			s2.179-1.572,2.507-1.807C413.009,386.681,413.17,386.511,413.111,386.126z M399.725,385.933c0.167-0.326,0.943-0.262,1.737,0.143
			s1.302,0.994,1.135,1.322c-0.168,0.326-0.942,0.262-1.735-0.143C400.067,386.851,399.558,386.259,399.725,385.933z
			 M402.067,389.896c-0.63,0.629-1.35,0.93-1.607,0.672c-0.261-0.258,0.042-0.979,0.67-1.607c0.632-0.631,1.351-0.932,1.609-0.672
			C402.998,388.546,402.694,389.265,402.067,389.896z M403.371,386.981c-0.361-0.057-0.541-0.816-0.402-1.695
			c0.138-0.879,0.544-1.547,0.907-1.488c0.36,0.057,0.54,0.816,0.398,1.695C404.136,386.372,403.733,387.04,403.371,386.981z
			 M405.094,391.302c-0.328,0.166-0.917-0.342-1.323-1.137c-0.402-0.793-0.468-1.568-0.141-1.736
			c0.325-0.166,0.917,0.342,1.319,1.137C405.355,390.358,405.42,391.136,405.094,391.302z M405.734,388.026
			c-0.88,0.139-1.637-0.039-1.692-0.402c-0.06-0.361,0.606-0.766,1.488-0.904c0.878-0.141,1.638,0.037,1.694,0.4
			C407.282,387.481,406.613,387.886,405.734,388.026z"/>
	</g>
</g>
<g>
	<g>
		<g>
			<g>
				<g>
					<path d="M207.109,286.696c0.256-0.254,0.556-0.359,1.133-0.359h2.326c0.648,0,1.03,0.115,1.263,0.359
						c0.289,0.287,0.383,0.625,0.383,1.7v4.306h-1.771v-0.729c-0.765,0.625-1.041,0.74-1.608,0.74h-0.869
						c-0.567,0-0.867-0.068-1.123-0.322c-0.22-0.222-0.369-0.592-0.369-1.424c0-0.787,0.115-1.274,0.395-1.553
						c0.288-0.289,0.658-0.428,1.803-0.428c0.614,0,1.252,0.07,1.772,0.186v-0.566c0-0.627-0.035-0.754-0.116-0.846
						c-0.081-0.07-0.197-0.094-0.463-0.094h-0.891c-0.244,0-0.37,0.023-0.44,0.094c-0.092,0.092-0.104,0.219-0.127,0.602h-1.678
						C206.739,287.298,206.842,286.949,207.109,286.696z M210.442,291.117v-1.065h-1.169c-0.671,0-0.833,0.047-0.95,0.162
						c-0.114,0.115-0.138,0.255-0.138,0.543c0,0.326,0.023,0.499,0.115,0.592c0.093,0.092,0.22,0.104,0.451,0.104h0.497
						C209.621,291.452,209.863,291.419,210.442,291.117z"/>
					<path d="M216.99,292.702v-0.82c-0.799,0.693-1.075,0.832-1.598,0.832h-0.671c-0.673,0-1.03-0.115-1.308-0.393
						c-0.381-0.383-0.532-0.938-0.532-2.802c0-1.875,0.185-2.407,0.579-2.801c0.277-0.276,0.646-0.393,1.284-0.393h0.693
						c0.532,0,0.823,0.116,1.552,0.729v-2.894h1.772v8.541H216.99z M216.99,291.024v-3.031c-0.37-0.174-0.638-0.255-0.926-0.255
						h-0.636c-0.325,0-0.478,0.046-0.58,0.149c-0.162,0.15-0.208,0.418-0.208,1.632s0.046,1.472,0.208,1.634
						c0.103,0.103,0.255,0.138,0.58,0.138h0.577C216.308,291.291,216.597,291.209,216.99,291.024z"/>
					<path d="M220.066,286.696c0.255-0.254,0.556-0.359,1.134-0.359h2.327c0.647,0,1.028,0.115,1.262,0.359
						c0.29,0.287,0.381,0.625,0.381,1.7v4.306h-1.771v-0.729c-0.763,0.625-1.042,0.74-1.609,0.74h-0.867
						c-0.566,0-0.869-0.068-1.122-0.322c-0.221-0.222-0.37-0.592-0.37-1.424c0-0.787,0.114-1.274,0.394-1.553
						c0.288-0.289,0.658-0.428,1.805-0.428c0.614,0,1.249,0.07,1.771,0.186v-0.566c0-0.627-0.034-0.754-0.116-0.846
						c-0.079-0.07-0.196-0.094-0.462-0.094h-0.892c-0.242,0-0.37,0.023-0.439,0.094c-0.094,0.092-0.104,0.219-0.129,0.602h-1.677
						C219.696,287.298,219.801,286.949,220.066,286.696z M223.399,291.117v-1.065h-1.168c-0.672,0-0.835,0.047-0.949,0.162
						c-0.115,0.115-0.139,0.255-0.139,0.543c0,0.326,0.023,0.499,0.115,0.592c0.092,0.092,0.22,0.104,0.452,0.104h0.497
						C222.578,291.452,222.821,291.419,223.399,291.117z"/>
					<path d="M225.838,292.702v-6.667c0-0.798,0.105-1.215,0.372-1.481c0.266-0.266,0.566-0.393,1.25-0.393h1.458v1.342h-0.858
						c-0.229,0-0.3,0.023-0.369,0.081c-0.059,0.07-0.08,0.196-0.08,0.51v0.255h1.308v1.378h-1.296v4.976H225.838z"/>
					<path d="M229.586,292.702v-6.365h1.771v0.973c0.661-0.684,0.996-0.983,1.505-0.983h0.682v1.747h-0.82
						c-0.486,0-0.856,0.047-1.366,0.255v4.374H229.586z"/>
					<path d="M239.941,286.337v6.365h-1.783v-0.844c-0.809,0.729-1.076,0.855-1.655,0.855h-0.775c-0.556,0-0.902-0.115-1.144-0.358
						c-0.256-0.266-0.372-0.601-0.372-1.528v-4.49h1.783v4.294c0,0.267,0.033,0.417,0.138,0.522
						c0.104,0.103,0.209,0.138,0.521,0.138h0.511c0.3,0,0.567-0.069,0.994-0.255v-4.699H239.941z"/>
					<path d="M242.349,285.456h-1.748v-1.295h1.748V285.456z M242.349,292.702h-1.748v-6.365h1.748V292.702z"/>
					<path d="M246.108,291.303h-0.765c-0.29,0-0.405-0.024-0.463-0.07c-0.059-0.069-0.081-0.161-0.081-0.44v-3.065h1.309v-1.39
						H244.8v-0.881h-1.783v0.881v1.39v3.542c0,0.646,0.082,0.937,0.291,1.146c0.219,0.22,0.542,0.347,1.146,0.347
						c0.474,0,0.949-0.07,1.226-0.139l0.43-0.111V291.303z"/>
				</g>
			</g>
		</g>
		<path d="M209.883,282.251c-0.061-0.385-0.271-0.494-0.774-0.656c-0.382-0.121-2.942-0.938-2.942-0.938s-1.785-0.676-3.109,0.279
			c-0.179,0.129-0.364,0.275-0.549,0.432c0.156-0.186,0.302-0.371,0.431-0.549c0.95-1.326,0.273-3.111,0.273-3.111
			s-0.819-2.559-0.944-2.941c-0.163-0.504-0.272-0.713-0.657-0.771c-0.386-0.061-0.556,0.104-0.862,0.531
			c-0.236,0.326-1.805,2.51-1.805,2.51s-1.19,1.49-0.691,3.045c0.066,0.209,0.147,0.43,0.239,0.654
			c-0.13-0.207-0.259-0.402-0.387-0.578c-0.97-1.314-2.874-1.223-2.874-1.223s-2.688-0.01-3.092-0.012
			c-0.529-0.002-0.761,0.039-0.937,0.387c-0.178,0.348-0.072,0.559,0.241,0.984c0.236,0.324,1.829,2.49,1.829,2.49
			s1.047,1.594,2.681,1.602c0.217,0.002,0.453-0.01,0.694-0.027c-0.235,0.059-0.461,0.123-0.669,0.191
			c-1.549,0.514-2.051,2.357-2.051,2.357s-0.841,2.551-0.965,2.936c-0.162,0.5-0.197,0.734,0.078,1.008
			c0.274,0.275,0.509,0.242,1.01,0.078c0.381-0.127,2.936-0.973,2.936-0.973s1.838-0.504,2.349-2.053
			c0.069-0.209,0.132-0.436,0.192-0.668c-0.018,0.24-0.027,0.475-0.026,0.693c0.009,1.633,1.607,2.678,1.607,2.678
			s2.169,1.588,2.491,1.824c0.427,0.311,0.638,0.416,0.985,0.238c0.347-0.176,0.388-0.408,0.385-0.938
			c-0.002-0.4-0.017-3.09-0.017-3.09s0.09-1.906-1.227-2.871c-0.178-0.129-0.374-0.26-0.579-0.387
			c0.225,0.09,0.445,0.172,0.654,0.236c1.556,0.496,3.043-0.699,3.043-0.699s2.179-1.57,2.507-1.807
			C209.78,282.806,209.941,282.636,209.883,282.251z M196.496,282.058c0.167-0.328,0.943-0.262,1.737,0.143
			c0.794,0.402,1.302,0.994,1.135,1.32c-0.168,0.326-0.942,0.262-1.735-0.141C196.839,282.976,196.329,282.384,196.496,282.058z
			 M198.839,286.019c-0.63,0.629-1.35,0.93-1.607,0.672c-0.261-0.258,0.042-0.979,0.67-1.607c0.632-0.631,1.351-0.932,1.609-0.672
			C199.77,284.669,199.466,285.388,198.839,286.019z M200.143,283.106c-0.361-0.059-0.541-0.816-0.402-1.695
			c0.138-0.879,0.544-1.547,0.907-1.49c0.36,0.059,0.54,0.818,0.398,1.697C200.907,282.497,200.505,283.163,200.143,283.106z
			 M201.865,287.425c-0.328,0.166-0.917-0.342-1.323-1.137c-0.402-0.793-0.468-1.568-0.141-1.736
			c0.325-0.166,0.917,0.342,1.319,1.137C202.127,286.481,202.191,287.259,201.865,287.425z M202.506,284.149
			c-0.88,0.139-1.637-0.039-1.692-0.4c-0.06-0.361,0.606-0.766,1.488-0.904c0.878-0.141,1.638,0.037,1.694,0.4
			C204.054,283.606,203.385,284.009,202.506,284.149z"/>
	</g>
	<g>
		<g>
			<g>
				<path d="M381.884,286.696c0.256-0.255,0.556-0.359,1.134-0.359h2.327c0.647,0,1.029,0.114,1.262,0.359
					c0.289,0.288,0.382,0.624,0.382,1.701v4.305h-1.771v-0.729c-0.764,0.625-1.041,0.74-1.608,0.74h-0.868
					c-0.567,0-0.868-0.069-1.123-0.323c-0.22-0.221-0.37-0.59-0.37-1.424c0-0.787,0.115-1.273,0.395-1.552
					c0.288-0.289,0.658-0.429,1.805-0.429c0.613,0,1.25,0.071,1.771,0.187v-0.567c0-0.626-0.034-0.753-0.115-0.845
					c-0.082-0.07-0.197-0.094-0.463-0.094h-0.891c-0.244,0-0.372,0.023-0.44,0.094c-0.093,0.092-0.104,0.219-0.128,0.602h-1.677
					C381.513,287.298,381.617,286.95,381.884,286.696z M385.217,291.116v-1.064h-1.168c-0.673,0-0.834,0.046-0.949,0.162
					c-0.116,0.116-0.14,0.255-0.14,0.544c0,0.324,0.023,0.498,0.116,0.591c0.093,0.092,0.22,0.104,0.451,0.104h0.498
					C384.396,291.452,384.639,291.418,385.217,291.116z"/>
				<path d="M391.766,292.702v-0.821c-0.798,0.694-1.076,0.833-1.599,0.833h-0.67c-0.672,0-1.03-0.115-1.308-0.393
					c-0.382-0.382-0.533-0.939-0.533-2.803c0-1.874,0.185-2.406,0.579-2.801c0.278-0.276,0.647-0.393,1.285-0.393h0.693
					c0.533,0,0.822,0.116,1.552,0.729v-2.894h1.771v8.541H391.766z M391.766,291.024v-3.032c-0.371-0.174-0.637-0.255-0.926-0.255
					h-0.637c-0.324,0-0.476,0.047-0.579,0.15c-0.162,0.15-0.208,0.417-0.208,1.631c0,1.216,0.046,1.472,0.208,1.634
					c0.104,0.104,0.255,0.139,0.579,0.139h0.578C391.083,291.291,391.372,291.209,391.766,291.024z"/>
				<path d="M394.842,286.696c0.255-0.255,0.556-0.359,1.134-0.359h2.327c0.647,0,1.03,0.114,1.262,0.359
					c0.289,0.288,0.382,0.624,0.382,1.701v4.305h-1.771v-0.729c-0.765,0.625-1.042,0.74-1.609,0.74h-0.867
					c-0.568,0-0.869-0.069-1.123-0.323c-0.221-0.221-0.371-0.59-0.371-1.424c0-0.787,0.116-1.273,0.394-1.552
					c0.29-0.289,0.66-0.429,1.806-0.429c0.613,0,1.251,0.071,1.771,0.187v-0.567c0-0.626-0.035-0.753-0.116-0.845
					c-0.08-0.07-0.197-0.094-0.463-0.094h-0.891c-0.244,0-0.371,0.023-0.44,0.094c-0.093,0.092-0.104,0.219-0.128,0.602h-1.678
					C394.472,287.298,394.576,286.95,394.842,286.696z M398.176,291.116v-1.064h-1.169c-0.672,0-0.834,0.046-0.949,0.162
					s-0.139,0.255-0.139,0.544c0,0.324,0.023,0.498,0.115,0.591c0.093,0.092,0.22,0.104,0.451,0.104h0.497
					C397.354,291.452,397.597,291.418,398.176,291.116z"/>
				<path d="M400.614,292.702v-6.666c0-0.799,0.104-1.216,0.371-1.481c0.267-0.267,0.566-0.394,1.25-0.394h1.458v1.342h-0.856
					c-0.231,0-0.302,0.023-0.37,0.082c-0.059,0.068-0.082,0.195-0.082,0.509v0.255h1.309v1.377h-1.297v4.977H400.614z"/>
				<path d="M404.362,292.702v-6.365h1.77v0.972c0.66-0.683,0.996-0.983,1.505-0.983h0.684v1.748h-0.822
					c-0.486,0-0.856,0.046-1.366,0.254v4.375H404.362z"/>
				<path d="M414.717,286.337v6.365h-1.782v-0.844c-0.81,0.729-1.076,0.855-1.655,0.855h-0.775c-0.556,0-0.903-0.115-1.146-0.359
					c-0.255-0.266-0.37-0.601-0.37-1.526v-4.491h1.782v4.294c0,0.266,0.034,0.417,0.138,0.521c0.104,0.104,0.209,0.139,0.521,0.139
					h0.51c0.301,0,0.567-0.069,0.995-0.255v-4.699H414.717z"/>
				<path d="M417.125,285.457h-1.748v-1.296h1.748V285.457z M417.125,292.702h-1.748v-6.365h1.748V292.702z"/>
				<path d="M420.884,291.303h-0.765c-0.29,0-0.405-0.024-0.462-0.07c-0.059-0.069-0.082-0.161-0.082-0.44v-3.066h1.309v-1.389
					h-1.309v-0.88h-1.782v0.88v1.389v3.542c0,0.648,0.081,0.937,0.29,1.146c0.22,0.22,0.543,0.348,1.146,0.348
					c0.475,0,0.949-0.07,1.227-0.14l0.429-0.11V291.303z"/>
			</g>
		</g>
		<path d="M413.111,274.126c-0.061-0.383-0.271-0.492-0.774-0.654c-0.382-0.123-2.942-0.939-2.942-0.939s-1.785-0.674-3.109,0.279
			c-0.179,0.129-0.364,0.275-0.549,0.432c0.156-0.186,0.302-0.371,0.431-0.549c0.95-1.326,0.273-3.109,0.273-3.109
			s-0.819-2.559-0.944-2.943c-0.163-0.502-0.272-0.711-0.657-0.77c-0.386-0.062-0.556,0.102-0.862,0.531
			c-0.236,0.326-1.805,2.51-1.805,2.51s-1.19,1.49-0.691,3.043c0.066,0.209,0.147,0.43,0.239,0.654
			c-0.13-0.205-0.259-0.4-0.387-0.578c-0.97-1.312-2.874-1.221-2.874-1.221s-2.688-0.012-3.092-0.012
			c-0.529-0.004-0.761,0.039-0.937,0.387c-0.178,0.346-0.072,0.557,0.241,0.984c0.236,0.324,1.829,2.49,1.829,2.49
			s1.047,1.594,2.681,1.602c0.217,0.002,0.453-0.01,0.694-0.027c-0.235,0.059-0.461,0.123-0.669,0.191
			c-1.549,0.514-2.051,2.357-2.051,2.357s-0.841,2.55-0.965,2.935c-0.162,0.5-0.197,0.734,0.078,1.008
			c0.274,0.275,0.509,0.242,1.01,0.078c0.381-0.127,2.936-0.973,2.936-0.973s1.838-0.504,2.349-2.052
			c0.069-0.209,0.132-0.436,0.192-0.668c-0.018,0.24-0.027,0.475-0.026,0.693c0.009,1.632,1.607,2.677,1.607,2.677
			s2.169,1.588,2.491,1.824c0.427,0.311,0.638,0.416,0.985,0.238c0.347-0.176,0.388-0.408,0.385-0.938
			c-0.002-0.4-0.017-3.089-0.017-3.089s0.09-1.906-1.227-2.871c-0.178-0.129-0.374-0.26-0.579-0.387
			c0.225,0.09,0.445,0.172,0.654,0.236c1.556,0.496,3.043-0.699,3.043-0.699s2.179-1.572,2.507-1.807
			C413.009,274.681,413.17,274.511,413.111,274.126z M399.725,273.933c0.167-0.326,0.943-0.262,1.737,0.143s1.302,0.994,1.135,1.322
			c-0.168,0.326-0.942,0.262-1.735-0.143C400.067,274.851,399.558,274.259,399.725,273.933z M402.067,277.896
			c-0.63,0.629-1.35,0.93-1.607,0.672c-0.261-0.258,0.042-0.979,0.67-1.607c0.632-0.631,1.351-0.932,1.609-0.672
			C402.998,276.546,402.694,277.265,402.067,277.896z M403.371,274.981c-0.361-0.057-0.541-0.816-0.402-1.695
			c0.138-0.879,0.544-1.547,0.907-1.488c0.36,0.057,0.54,0.816,0.398,1.695C404.136,274.372,403.733,275.04,403.371,274.981z
			 M405.094,279.302c-0.328,0.166-0.917-0.342-1.323-1.137c-0.402-0.793-0.468-1.568-0.141-1.736
			c0.325-0.166,0.917,0.342,1.319,1.137C405.355,278.358,405.42,279.136,405.094,279.302z M405.734,276.026
			c-0.88,0.139-1.637-0.039-1.692-0.402c-0.06-0.361,0.606-0.766,1.488-0.904c0.878-0.141,1.638,0.037,1.694,0.4
			C407.282,275.481,406.613,275.886,405.734,276.026z"/>
	</g>
</g>
<g>
	<path fill="#ED1C24" d="M240.828,50.552c-0.294,0.294-0.729,0.448-1.513,0.448h-3.292c-0.77,0-1.218-0.098-1.527-0.406
		c-0.406-0.406-0.532-0.882-0.56-2.675h1.555c0.028,1.219,0.07,1.471,0.182,1.583c0.084,0.084,0.196,0.154,0.616,0.154h2.76
		c0.406,0,0.532-0.042,0.644-0.154c0.126-0.126,0.154-0.504,0.154-1.331c0-0.714-0.014-0.938-0.168-1.092
		c-0.112-0.112-0.252-0.154-0.645-0.182l-3.082-0.28c-0.714-0.07-1.135-0.21-1.429-0.504c-0.392-0.392-0.462-0.854-0.462-2.143
		c0-1.261,0.126-1.877,0.574-2.325c0.294-0.294,0.743-0.448,1.485-0.448h3.026c0.771,0,1.219,0.098,1.527,0.406
		c0.406,0.406,0.504,0.854,0.56,2.605h-1.555c-0.028-1.149-0.07-1.401-0.182-1.513c-0.084-0.084-0.196-0.154-0.616-0.154h-2.479
		c-0.392,0-0.518,0.042-0.63,0.154c-0.126,0.126-0.154,0.519-0.154,1.261c0,0.687,0.014,0.925,0.168,1.079
		c0.112,0.112,0.252,0.126,0.644,0.168l3.082,0.28c0.672,0.056,1.106,0.196,1.4,0.49c0.378,0.378,0.49,0.854,0.49,2.185
		C241.402,49.515,241.276,50.104,240.828,50.552z"/>
	<path fill="#ED1C24" d="M249.774,47.022c-0.309,0.28-0.799,0.364-1.513,0.364h-3.32V51h-1.569v-9.805h4.889
		c0.714,0,1.205,0.084,1.513,0.364c0.42,0.378,0.798,1.008,0.798,2.773C250.572,46.013,250.18,46.644,249.774,47.022z
		 M247.869,46.042c0.49,0,0.658-0.042,0.756-0.126c0.154-0.126,0.35-0.448,0.35-1.625c0-1.191-0.196-1.499-0.35-1.625
		c-0.098-0.084-0.266-0.126-0.756-0.126h-2.928v3.502H247.869z"/>
	<path fill="#ED1C24" d="M258.888,51h-6.696v-9.805h6.696v1.345h-5.127v2.703h4.245v1.345h-4.245v3.068h5.127V51z"/>
	<path fill="#ED1C24" d="M267.232,50.608C266.91,50.902,266.559,51,265.635,51h-2.717c-0.925,0-1.275-0.098-1.597-0.392
		c-0.546-0.49-0.882-1.205-0.882-4.511c0-3.306,0.336-4.02,0.882-4.51c0.322-0.294,0.672-0.392,1.597-0.392h2.717
		c0.924,0,1.275,0.098,1.597,0.392c0.546,0.49,0.798,1.135,0.826,2.83h-1.569c-0.042-1.233-0.168-1.583-0.322-1.723
		c-0.112-0.098-0.224-0.154-0.7-0.154h-2.381c-0.476,0-0.588,0.056-0.7,0.154c-0.154,0.14-0.351,0.574-0.351,3.404
		s0.196,3.264,0.351,3.404c0.112,0.098,0.224,0.154,0.7,0.154h2.381c0.476,0.014,0.588-0.056,0.7-0.154
		c0.154-0.14,0.28-0.42,0.322-1.877h1.583C268.002,49.571,267.778,50.118,267.232,50.608z"/>
	<path fill="#ED1C24" d="M270.028,51v-9.805h1.569V51H270.028z"/>
	<path fill="#ED1C24" d="M279.243,48.241h-3.74L274.648,51h-1.555l3.11-9.469c0.098-0.322,0.182-0.378,0.56-0.378h1.359
		c0.35,0,0.448,0.056,0.56,0.378l3.11,9.469h-1.695L279.243,48.241z M275.909,46.924h2.914l-1.345-4.398h-0.21L275.909,46.924z"/>
	<path fill="#ED1C24" d="M284.756,49.655h4.749V51h-6.317v-9.805h1.569V49.655z"/>
	<path fill="#ED1C24" d="M301.84,46.924c0,2.465-0.21,2.97-0.729,3.488C300.663,50.86,299.991,51,298.702,51h-1.429
		c-1.275,0-1.933-0.154-2.354-0.574c-0.518-0.519-0.714-1.009-0.714-3.502v-5.729h1.569v6.065c0,1.779,0.14,1.933,0.336,2.129
		c0.154,0.154,0.42,0.224,1.499,0.224h0.883c1.05,0,1.303-0.056,1.471-0.224c0.21-0.21,0.308-0.322,0.308-2.129v-6.065h1.569V46.924
		z"/>
	<path fill="#ED1C24" d="M310.729,50.552C310.436,50.846,310,51,309.217,51h-3.292c-0.77,0-1.218-0.098-1.527-0.406
		c-0.406-0.406-0.532-0.882-0.56-2.675h1.555c0.028,1.219,0.07,1.471,0.182,1.583c0.084,0.084,0.196,0.154,0.617,0.154h2.758
		c0.406,0,0.533-0.042,0.645-0.154c0.127-0.126,0.154-0.504,0.154-1.331c0-0.714-0.014-0.938-0.168-1.092
		c-0.111-0.112-0.252-0.154-0.645-0.182l-3.081-0.28c-0.714-0.07-1.135-0.21-1.429-0.504c-0.392-0.392-0.462-0.854-0.462-2.143
		c0-1.261,0.126-1.877,0.574-2.325c0.294-0.294,0.743-0.448,1.485-0.448h3.026c0.77,0,1.219,0.098,1.525,0.406
		c0.406,0.406,0.506,0.854,0.561,2.605h-1.555c-0.027-1.149-0.07-1.401-0.182-1.513c-0.084-0.084-0.195-0.154-0.617-0.154h-2.479
		c-0.392,0-0.518,0.042-0.63,0.154c-0.126,0.126-0.154,0.519-0.154,1.261c0,0.687,0.014,0.925,0.168,1.079
		c0.112,0.112,0.252,0.126,0.644,0.168l3.082,0.28c0.672,0.056,1.107,0.196,1.4,0.49c0.379,0.378,0.49,0.854,0.49,2.185
		C311.303,49.515,311.178,50.104,310.729,50.552z"/>
	<path fill="#ED1C24" d="M318.539,48.241h-3.738L313.945,51h-1.555l3.109-9.469c0.098-0.322,0.182-0.378,0.561-0.378h1.359
		c0.35,0,0.447,0.056,0.561,0.378L321.09,51h-1.695L318.539,48.241z M315.207,46.924h2.912l-1.344-4.398h-0.211L315.207,46.924z"/>
	<path fill="#ED1C24" d="M327.445,41.195c0.924,0,1.273,0.098,1.596,0.392c0.547,0.49,0.742,0.953,0.771,2.689h-1.527
		c-0.027-1.163-0.154-1.443-0.309-1.583c-0.111-0.098-0.225-0.154-0.701-0.154h-2.422c-0.477,0-0.588,0.056-0.701,0.154
		c-0.154,0.14-0.35,0.574-0.35,3.404s0.195,3.264,0.35,3.404c0.113,0.098,0.225,0.154,0.701,0.154h2.422
		c0.477,0.014,0.59-0.056,0.701-0.154c0.154-0.14,0.336-0.63,0.336-1.807v-0.49h-2.283v-1.345h3.867v1.247
		c0,2.157-0.309,3.012-0.855,3.502c-0.322,0.294-0.672,0.392-1.596,0.392h-2.76c-0.926,0-1.275-0.098-1.598-0.392
		c-0.547-0.49-0.883-1.205-0.883-4.511c0-3.306,0.336-4.02,0.883-4.51c0.322-0.294,0.672-0.392,1.598-0.392H327.445z"/>
	<path fill="#ED1C24" d="M338.604,51h-6.695v-9.805h6.695v1.345h-5.127v2.703h4.244v1.345h-4.244v3.068h5.127V51z"/>
	<path fill="#ED1C24" d="M345.152,49.655h4.748V51h-6.316v-9.805h1.568V49.655z"/>
	<path fill="#ED1C24" d="M356.383,41.195c0.924,0,1.275,0.098,1.598,0.392c0.545,0.49,0.881,1.205,0.881,4.51
		c0,3.306-0.336,4.021-0.881,4.511c-0.322,0.294-0.674,0.392-1.598,0.392h-2.801c-0.926,0-1.275-0.098-1.598-0.392
		c-0.547-0.49-0.883-1.205-0.883-4.511c0-3.306,0.336-4.02,0.883-4.51c0.322-0.294,0.672-0.392,1.598-0.392H356.383z
		 M353.049,49.501c0.113,0.098,0.225,0.154,0.701,0.154h2.465c0.477,0.014,0.588-0.056,0.701-0.154
		c0.152-0.14,0.35-0.574,0.35-3.404s-0.197-3.264-0.35-3.404c-0.113-0.098-0.225-0.154-0.701-0.154h-2.465
		c-0.477,0-0.588,0.056-0.701,0.154c-0.154,0.14-0.35,0.574-0.35,3.404S352.895,49.361,353.049,49.501z"/>
	<path fill="#ED1C24" d="M365.973,41.195c0.924,0,1.275,0.098,1.598,0.392c0.545,0.49,0.742,0.953,0.77,2.689h-1.527
		c-0.027-1.163-0.154-1.443-0.307-1.583c-0.113-0.098-0.225-0.154-0.701-0.154h-2.424c-0.477,0-0.588,0.056-0.699,0.154
		c-0.154,0.14-0.352,0.574-0.352,3.404s0.197,3.264,0.352,3.404c0.111,0.098,0.223,0.154,0.699,0.154h2.424
		c0.477,0.014,0.588-0.056,0.701-0.154c0.152-0.14,0.336-0.63,0.336-1.807v-0.49h-2.283v-1.345h3.865v1.247
		c0,2.157-0.309,3.012-0.854,3.502c-0.322,0.294-0.674,0.392-1.598,0.392h-2.76c-0.924,0-1.273-0.098-1.596-0.392
		c-0.547-0.49-0.883-1.205-0.883-4.511c0-3.306,0.336-4.02,0.883-4.51c0.322-0.294,0.672-0.392,1.596-0.392H365.973z"/>
	<path fill="#ED1C24" d="M375.508,41.195c0.924,0,1.273,0.098,1.596,0.392c0.547,0.49,0.883,1.205,0.883,4.51
		c0,3.306-0.336,4.021-0.883,4.511c-0.322,0.294-0.672,0.392-1.596,0.392h-2.803c-0.924,0-1.273-0.098-1.596-0.392
		c-0.547-0.49-0.883-1.205-0.883-4.511c0-3.306,0.336-4.02,0.883-4.51c0.322-0.294,0.672-0.392,1.596-0.392H375.508z
		 M372.174,49.501c0.111,0.098,0.223,0.154,0.699,0.154h2.467c0.475,0.014,0.588-0.056,0.699-0.154
		c0.154-0.14,0.35-0.574,0.35-3.404s-0.195-3.264-0.35-3.404c-0.111-0.098-0.225-0.154-0.699-0.154h-2.467
		c-0.477,0-0.588,0.056-0.699,0.154c-0.154,0.14-0.352,0.574-0.352,3.404S372.02,49.361,372.174,49.501z"/>
</g>
</svg>
